<svg width="24" height="25" viewBox="0 0 24 25" fill="none" xmlns="http://www.w3.org/2000/svg">
<g id="SVG">
<g id="Group">
<path id="Vector" opacity="0.2" d="M20.25 12.8298C20.25 14.4615 19.7661 16.0566 18.8596 17.4133C17.9531 18.77 16.6646 19.8274 15.1571 20.4518C13.6497 21.0763 11.9909 21.2396 10.3905 20.9213C8.79017 20.603 7.32016 19.8173 6.16637 18.6635C5.01259 17.5097 4.22685 16.0397 3.90853 14.4393C3.5902 12.839 3.75357 11.1802 4.378 9.6727C5.00242 8.16521 6.05984 6.87673 7.41655 5.97021C8.77325 5.06369 10.3683 4.57983 12 4.57983C14.188 4.57983 16.2865 5.44903 17.8336 6.9962C19.3808 8.54338 20.25 10.6418 20.25 12.8298Z" fill="#0083FD"/>
<path id="Vector_2" d="M21 5.32978V9.82978C21 10.0287 20.921 10.2195 20.7803 10.3601C20.6397 10.5008 20.4489 10.5798 20.25 10.5798H15.75C15.5511 10.5798 15.3603 10.5008 15.2197 10.3601C15.079 10.2195 15 10.0287 15 9.82978C15 9.63087 15.079 9.4401 15.2197 9.29945C15.3603 9.1588 15.5511 9.07978 15.75 9.07978H18.4397L17.0681 7.70822C15.6742 6.30797 13.7817 5.51799 11.8059 5.51166H11.7638C9.80454 5.50706 7.92227 6.27391 6.52406 7.64634C6.38083 7.78005 6.19096 7.8524 5.99507 7.8479C5.79918 7.84341 5.61283 7.76243 5.47588 7.6223C5.33893 7.48217 5.26226 7.294 5.26227 7.09806C5.26228 6.90212 5.33897 6.71396 5.47594 6.57384C7.1705 4.91765 9.44983 3.99654 11.8193 4.01041C14.1887 4.02427 16.4571 4.972 18.1322 6.64791L19.5 8.01947V5.32978C19.5 5.13087 19.579 4.9401 19.7197 4.79945C19.8603 4.6588 20.0511 4.57978 20.25 4.57978C20.4489 4.57978 20.6397 4.6588 20.7803 4.79945C20.921 4.9401 21 5.13087 21 5.32978ZM17.4759 18.0132C16.0639 19.3925 14.1651 20.1595 12.1912 20.1479C10.2173 20.1364 8.32762 19.3471 6.93188 17.9513L5.56031 16.5798H8.25C8.44891 16.5798 8.63968 16.5008 8.78033 16.3601C8.92098 16.2195 9 16.0287 9 15.8298C9 15.6309 8.92098 15.4401 8.78033 15.2994C8.63968 15.1588 8.44891 15.0798 8.25 15.0798H3.75C3.55109 15.0798 3.36032 15.1588 3.21967 15.2994C3.07902 15.4401 3 15.6309 3 15.8298V20.3298C3 20.5287 3.07902 20.7195 3.21967 20.8601C3.36032 21.0008 3.55109 21.0798 3.75 21.0798C3.94891 21.0798 4.13968 21.0008 4.28033 20.8601C4.42098 20.7195 4.5 20.5287 4.5 20.3298V17.6401L5.87156 19.0117C7.54426 20.6928 9.816 21.641 12.1875 21.6479H12.2372C14.5885 21.654 16.8476 20.7334 18.525 19.0857C18.662 18.9456 18.7387 18.7574 18.7387 18.5615C18.7387 18.3656 18.662 18.1774 18.5251 18.0373C18.3881 17.8971 18.2018 17.8162 18.0059 17.8117C17.81 17.8072 17.6201 17.8795 17.4769 18.0132H17.4759Z" fill="#0083FD"/>
</g>
</g>
</svg>
