<svg width="54" height="21" viewBox="0 0 54 21" fill="none" xmlns="http://www.w3.org/2000/svg">
<g id="svg8983779558" clip-path="url(#clip0_1_38)">
<path id="Vector" d="M3.59498 12.507C3.54598 12.386 3.50698 12.262 3.47798 12.135H8.87898V11.1C8.87898 9.70997 8.52198 8.65497 7.80798 7.93497C7.09398 7.20497 6.10798 6.83997 4.85098 6.83997C4.06598 6.83997 3.35698 7.01497 2.72398 7.36497C2.08998 7.70497 1.58698 8.21497 1.21498 8.89497C0.842981 9.56497 0.656982 10.37 0.656982 11.31C0.656982 12.21 0.837982 13 1.19998 13.68C1.55698 14.355 2.10898 14.909 2.78398 15.27C3.48798 15.64 4.33798 15.825 5.33398 15.825C6.04798 15.825 6.66098 15.765 7.17398 15.645C7.54698 15.564 7.90998 15.443 8.25698 15.282C8.41698 15.21 8.57398 15.131 8.72798 15.045L8.04898 13.035C7.65298 13.239 7.23898 13.404 6.81198 13.53C6.76298 13.543 6.71398 13.554 6.66498 13.565L6.58598 13.582L6.52498 13.592L6.43698 13.607C6.19198 13.647 5.94398 13.666 5.69598 13.665C5.02198 13.665 4.50898 13.53 4.15698 13.26C3.90698 13.062 3.71398 12.802 3.59498 12.507ZM3.96098 9.26997C4.19198 9.08997 4.48898 8.99997 4.85098 8.99997C5.06498 8.99997 5.25098 9.02797 5.40898 9.08497C5.49598 9.11697 5.57598 9.15697 5.64498 9.20697L5.67698 9.22997C5.69898 9.24697 5.72098 9.26597 5.74098 9.28497C5.95198 9.47497 6.07798 9.77997 6.11798 10.2H3.49298C3.58398 9.75997 3.73998 9.44997 3.96098 9.26997Z" fill="#666666"/>
<path id="Vector_2" d="M15.4159 15.5699L14.0279 13.2749L12.7009 15.5699H9.63794L12.4289 11.1449L9.78894 7.07989H12.8509L14.0739 9.13489L15.3099 7.07989H18.3429L15.6129 11.2649L18.4789 15.5699H15.4159ZM20.4239 14.6399C21.1689 15.4199 22.2449 15.8149 23.6529 15.8249C24.7689 15.8249 25.7899 15.5499 26.7149 14.9999L25.9759 12.8399C25.8179 12.9399 25.6549 13.0329 25.4879 13.1169C25.1629 13.2819 24.8159 13.3999 24.4569 13.4669C24.2659 13.4989 24.0729 13.5159 23.8789 13.5149C23.2349 13.5149 22.7679 13.3249 22.4759 12.9449C22.1839 12.5649 22.0389 12.0149 22.0389 11.2949C22.0389 10.5949 22.1889 10.0649 22.4909 9.70489C22.7929 9.34489 23.2809 9.15989 23.9539 9.14989C24.3569 9.14989 24.7189 9.18489 25.0409 9.25489C25.1189 9.27189 25.1979 9.29089 25.2779 9.31289L25.3869 9.34589L25.4249 9.35689L25.5459 9.39889L25.5939 9.41589C25.7649 9.47789 25.9329 9.54989 26.0969 9.62989V7.25989C25.7329 7.10789 25.3539 6.99789 24.9649 6.92989C24.5309 6.86489 24.0919 6.83489 23.6529 6.83989C22.2449 6.84989 21.1689 7.24489 20.4239 8.02489C19.6799 8.79489 19.3079 9.88989 19.3079 11.3099C19.3079 12.7399 19.6799 13.8499 20.4239 14.6399Z" fill="#666666"/>
<path id="Vector_3" d="M32.114 15.825C31.129 15.825 30.294 15.63 29.61 15.24C28.946 14.861 28.406 14.298 28.056 13.62C27.714 12.94 27.543 12.175 27.543 11.325C27.543 10.485 27.714 9.72497 28.056 9.04497C28.404 8.36897 28.944 7.81097 29.61 7.43997C30.294 7.03997 31.129 6.83997 32.114 6.83997C33.09 6.83997 33.919 7.03997 34.603 7.43997C35.267 7.80897 35.803 8.36797 36.142 9.04497C36.484 9.72497 36.655 10.485 36.655 11.325C36.655 12.175 36.484 12.94 36.142 13.62C35.801 14.299 35.266 14.863 34.603 15.24C33.919 15.63 33.09 15.825 32.114 15.825ZM32.114 13.605C32.708 13.605 33.155 13.41 33.457 13.02C33.564 12.887 33.652 12.732 33.722 12.557C33.857 12.223 33.924 11.812 33.924 11.325C33.924 10.595 33.769 10.035 33.457 9.64497C33.155 9.25497 32.708 9.05997 32.114 9.05997C31.511 9.05997 31.053 9.25497 30.741 9.64497C30.43 10.035 30.274 10.595 30.274 11.325C30.274 12.065 30.43 12.63 30.741 13.02C31.053 13.41 31.511 13.605 32.114 13.605Z" fill="#666666"/>
<path id="Vector_4" d="M43.532 9.2099V6.8999H43.185C42.762 6.8999 42.36 6.9799 41.978 7.1399C41.827 7.2009 41.676 7.2749 41.524 7.3629C41.29 7.4989 41.069 7.6559 40.861 7.8299V7.0799H38.236V15.5699H40.861V10.0349C41.636 9.4849 42.41 9.2099 43.185 9.2099H43.532Z" fill="#666666"/>
<path id="Vector_5" d="M47.336 12.135C47.37 12.287 47.4189 12.435 47.4829 12.577C47.5389 12.7 47.608 12.816 47.688 12.925C47.782 13.05 47.89 13.163 48.015 13.26C48.366 13.53 48.8789 13.665 49.5529 13.665C49.8249 13.664 50.096 13.641 50.364 13.596C50.467 13.578 50.57 13.556 50.67 13.53C51.097 13.404 51.511 13.238 51.907 13.035L52.585 15.045C52.373 15.162 52.1629 15.265 51.9539 15.353C51.8339 15.403 51.714 15.448 51.591 15.49C51.4079 15.552 51.221 15.604 51.032 15.645C50.519 15.765 49.9049 15.825 49.1909 15.825C48.1959 15.825 47.346 15.64 46.642 15.27C45.966 14.909 45.415 14.355 45.058 13.68C44.696 13 44.515 12.21 44.515 11.31C44.515 10.37 44.701 9.56499 45.073 8.89499C45.445 8.21499 45.9479 7.70499 46.5809 7.36499C46.9299 7.17299 47.302 7.03299 47.696 6.94599C48.029 6.87399 48.3679 6.83899 48.7079 6.83999C49.9659 6.83999 50.9509 7.20499 51.6649 7.93499C52.3789 8.65499 52.736 9.70999 52.736 11.1V12.135H47.336ZM48.7079 8.99999C48.3459 8.99999 48.0499 9.08999 47.8179 9.26999C47.5969 9.44999 47.441 9.75999 47.351 10.2H49.976C49.962 10.035 49.9279 9.87199 49.8739 9.71599C49.8199 9.55199 49.725 9.40299 49.598 9.28499C49.461 9.15899 49.2899 9.07399 49.1069 9.03899C48.9759 9.01199 48.8419 8.99899 48.7079 8.99999Z" fill="#666666"/>
</g>
<defs>
<clipPath id="clip0_1_38">
<rect width="88" height="20" fill="white" transform="translate(-34.91 0.449951)"/>
</clipPath>
</defs>
</svg>
