<svg width="24" height="25" viewBox="0 0 24 25" fill="none" xmlns="http://www.w3.org/2000/svg">
<g id="SVG">
<g id="Group">
<path id="Vector" opacity="0.2" d="M19.5 18.8298H4.50001C4.36874 18.829 4.23997 18.7938 4.12659 18.7277C4.0132 18.6615 3.91916 18.5668 3.85387 18.4529C3.78858 18.339 3.75432 18.21 3.75452 18.0787C3.75472 17.9474 3.78937 17.8185 3.85501 17.7048C4.47282 16.6361 5.25001 13.937 5.25001 10.5798C5.25001 8.78962 5.96116 7.07273 7.22703 5.80686C8.4929 4.54099 10.2098 3.82983 12 3.82983C13.7902 3.82983 15.5071 4.54099 16.773 5.80686C18.0388 7.07273 18.75 8.78962 18.75 10.5798C18.75 13.938 19.5281 16.6361 20.1469 17.7048C20.2126 17.8187 20.2472 17.9477 20.2474 18.0792C20.2475 18.2106 20.2131 18.3398 20.1475 18.4537C20.082 18.5676 19.9877 18.6623 19.8741 18.7284C19.7604 18.7944 19.6314 18.8294 19.5 18.8298Z" fill="#B742BD"/>
<path id="Vector_2" d="M20.7938 17.3242C20.2735 16.428 19.5 13.892 19.5 10.5798C19.5 8.59071 18.7098 6.68306 17.3033 5.27653C15.8968 3.87001 13.9891 3.07983 12 3.07983C10.0109 3.07983 8.10323 3.87001 6.69671 5.27653C5.29019 6.68306 4.50001 8.59071 4.50001 10.5798C4.50001 13.893 3.72564 16.428 3.20532 17.3242C3.07245 17.5521 3.00201 17.8109 3.00111 18.0747C3.0002 18.3384 3.06886 18.5978 3.20017 18.8265C3.33147 19.0553 3.52077 19.2454 3.74899 19.3776C3.9772 19.5099 4.23625 19.5796 4.50001 19.5798H8.32595C8.49899 20.4265 8.95916 21.1875 9.62864 21.734C10.2981 22.2805 11.1358 22.579 12 22.579C12.8642 22.579 13.7019 22.2805 14.3714 21.734C15.0409 21.1875 15.501 20.4265 15.6741 19.5798H19.5C19.7637 19.5795 20.0226 19.5096 20.2507 19.3773C20.4788 19.245 20.668 19.0549 20.7992 18.8261C20.9303 18.5974 20.9989 18.3381 20.998 18.0745C20.997 17.8108 20.9266 17.552 20.7938 17.3242ZM12 21.0798C11.5348 21.0797 11.0812 20.9354 10.7014 20.6668C10.3216 20.3981 10.0344 20.0184 9.87939 19.5798H14.1206C13.9656 20.0184 13.6784 20.3981 13.2986 20.6668C12.9189 20.9354 12.4652 21.0797 12 21.0798ZM4.50001 18.0798C5.22189 16.8386 6.00001 13.9623 6.00001 10.5798C6.00001 8.98853 6.63215 7.46241 7.75737 6.33719C8.88259 5.21198 10.4087 4.57983 12 4.57983C13.5913 4.57983 15.1174 5.21198 16.2427 6.33719C17.3679 7.46241 18 8.98853 18 10.5798C18 13.9595 18.7763 16.8358 19.5 18.0798H4.50001Z" fill="#B742BD"/>
</g>
</g>
</svg>
