<svg width="24" height="25" viewBox="0 0 24 25" fill="none" xmlns="http://www.w3.org/2000/svg">
<g id="SVG">
<g id="Group">
<path id="Vector" d="M2.625 12.7998C2.42609 12.7998 2.23532 12.7208 2.09467 12.5801C1.95402 12.4395 1.875 12.2487 1.875 12.0498C1.875 11.8509 1.95402 11.6601 2.09467 11.5195C2.23532 11.3788 2.42609 11.2998 2.625 11.2998H5.25C5.44891 11.2998 5.63968 11.2208 5.78033 11.0801C5.92098 10.9395 6 10.7487 6 10.5498C6 10.3509 5.92098 10.1601 5.78033 10.0195C5.63968 9.87882 5.44891 9.7998 5.25 9.7998H3.75C3.15326 9.7998 2.58097 9.56275 2.15901 9.1408C1.73705 8.71884 1.5 8.14654 1.5 7.5498C1.5 6.95307 1.73705 6.38077 2.15901 5.95881C2.58097 5.53686 3.15326 5.2998 3.75 5.2998C3.75 5.10089 3.82902 4.91013 3.96967 4.76947C4.11032 4.62882 4.30109 4.5498 4.5 4.5498C4.69891 4.5498 4.88968 4.62882 5.03033 4.76947C5.17098 4.91013 5.25 5.10089 5.25 5.2998H6C6.19891 5.2998 6.38968 5.37882 6.53033 5.51947C6.67098 5.66013 6.75 5.85089 6.75 6.0498C6.75 6.24872 6.67098 6.43948 6.53033 6.58013C6.38968 6.72079 6.19891 6.7998 6 6.7998H3.75C3.55109 6.7998 3.36032 6.87882 3.21967 7.01947C3.07902 7.16013 3 7.35089 3 7.5498C3 7.74872 3.07902 7.93948 3.21967 8.08013C3.36032 8.22079 3.55109 8.2998 3.75 8.2998H5.25C5.84674 8.2998 6.41903 8.53686 6.84099 8.95881C7.26295 9.38077 7.5 9.95307 7.5 10.5498C7.5 11.1465 7.26295 11.7188 6.84099 12.1408C6.41903 12.5628 5.84674 12.7998 5.25 12.7998C5.25 12.9987 5.17098 13.1895 5.03033 13.3301C4.88968 13.4708 4.69891 13.5498 4.5 13.5498C4.30109 13.5498 4.11032 13.4708 3.96967 13.3301C3.82902 13.1895 3.75 12.9987 3.75 12.7998H2.625ZM21.75 6.0498V18.7998C21.75 19.1976 21.592 19.5792 21.3107 19.8605C21.0294 20.1418 20.6478 20.2998 20.25 20.2998H3.75C3.35218 20.2998 2.97064 20.1418 2.68934 19.8605C2.40804 19.5792 2.25 19.1976 2.25 18.7998V15.0498C2.25 14.8509 2.32902 14.6601 2.46967 14.5195C2.61032 14.3788 2.80109 14.2998 3 14.2998C3.19891 14.2998 3.38968 14.3788 3.53033 14.5195C3.67098 14.6601 3.75 14.8509 3.75 15.0498V18.7998H15V15.7998H7.5C7.30109 15.7998 7.11032 15.7208 6.96967 15.5801C6.82902 15.4395 6.75 15.2487 6.75 15.0498C6.75 14.8509 6.82902 14.6601 6.96967 14.5195C7.11032 14.3788 7.30109 14.2998 7.5 14.2998H15V11.2998H9.75C9.55109 11.2998 9.36032 11.2208 9.21967 11.0801C9.07902 10.9395 9 10.7487 9 10.5498C9 10.3509 9.07902 10.1601 9.21967 10.0195C9.36032 9.87882 9.55109 9.7998 9.75 9.7998H20.25V6.7998H9C8.80109 6.7998 8.61032 6.72079 8.46967 6.58013C8.32902 6.43948 8.25 6.24872 8.25 6.0498C8.25 5.85089 8.32902 5.66013 8.46967 5.51947C8.61032 5.37882 8.80109 5.2998 9 5.2998H21C21.1989 5.2998 21.3897 5.37882 21.5303 5.51947C21.671 5.66013 21.75 5.85089 21.75 6.0498ZM16.5 14.2998H20.25V11.2998H16.5V14.2998ZM20.25 18.7998V15.7998H16.5V18.7998H20.25Z" fill="#666666"/>
</g>
</g>
</svg>
