<svg width="24" height="25" viewBox="0 0 24 25" fill="none" xmlns="http://www.w3.org/2000/svg">
<g id="SVG">
<g id="Group">
<path id="Vector" opacity="0.2" d="M3.75 18.0798H9.75V20.3298C9.75 20.5287 9.67098 20.7195 9.53033 20.8602C9.38968 21.0008 9.19891 21.0798 9 21.0798H4.5C4.30109 21.0798 4.11032 21.0008 3.96967 20.8602C3.82902 20.7195 3.75 20.5287 3.75 20.3298V18.0798ZM19.5 4.57983H15C14.8011 4.57983 14.6103 4.65885 14.4697 4.7995C14.329 4.94016 14.25 5.13092 14.25 5.32983V20.3298C14.25 20.5287 14.329 20.7195 14.4697 20.8602C14.6103 21.0008 14.8011 21.0798 15 21.0798H19.5C19.6989 21.0798 19.8897 21.0008 20.0303 20.8602C20.171 20.7195 20.25 20.5287 20.25 20.3298V5.32983C20.25 5.13092 20.171 4.94016 20.0303 4.7995C19.8897 4.65885 19.6989 4.57983 19.5 4.57983Z" fill="#0083FD"/>
<path id="Vector_2" d="M19.5 3.82994H15C14.6022 3.82994 14.2206 3.98797 13.9393 4.26928C13.658 4.55058 13.5 4.93211 13.5 5.32994V20.3299C13.5 20.7278 13.658 21.1093 13.9393 21.3906C14.2206 21.6719 14.6022 21.8299 15 21.8299H19.5C19.8978 21.8299 20.2794 21.6719 20.5607 21.3906C20.842 21.1093 21 20.7278 21 20.3299V5.32994C21 4.93211 20.842 4.55058 20.5607 4.26928C20.2794 3.98797 19.8978 3.82994 19.5 3.82994ZM19.5 20.3299H15V17.3299H17.25C17.4489 17.3299 17.6397 17.2509 17.7803 17.1103C17.921 16.9696 18 16.7788 18 16.5799C18 16.381 17.921 16.1903 17.7803 16.0496C17.6397 15.909 17.4489 15.8299 17.25 15.8299H15V13.5799H17.25C17.4489 13.5799 17.6397 13.5009 17.7803 13.3603C17.921 13.2196 18 13.0288 18 12.8299C18 12.631 17.921 12.4403 17.7803 12.2996C17.6397 12.159 17.4489 12.0799 17.25 12.0799H15V9.82994H17.25C17.4489 9.82994 17.6397 9.75092 17.7803 9.61027C17.921 9.46961 18 9.27885 18 9.07994C18 8.88102 17.921 8.69026 17.7803 8.54961C17.6397 8.40895 17.4489 8.32994 17.25 8.32994H15V5.32994H19.5V20.3299ZM7.28063 3.29931C7.21097 3.22958 7.12825 3.17426 7.03721 3.13652C6.94616 3.09877 6.84856 3.07935 6.75 3.07935C6.65144 3.07935 6.55384 3.09877 6.4628 3.13652C6.37175 3.17426 6.28903 3.22958 6.21938 3.29931L3.21938 6.29931C3.14975 6.36901 3.09454 6.45175 3.0569 6.5428C3.01926 6.63384 2.99992 6.73142 3 6.82994V20.3299C3 20.7278 3.15804 21.1093 3.43934 21.3906C3.72064 21.6719 4.10218 21.8299 4.5 21.8299H9C9.39782 21.8299 9.77936 21.6719 10.0607 21.3906C10.342 21.1093 10.5 20.7278 10.5 20.3299V6.82994C10.5001 6.73142 10.4807 6.63384 10.4431 6.5428C10.4055 6.45175 10.3503 6.36901 10.2806 6.29931L7.28063 3.29931ZM4.5 17.3299V8.32994H6V17.3299H4.5ZM7.5 8.32994H9V17.3299H7.5V8.32994ZM6.75 4.89025L8.68969 6.82994H4.81031L6.75 4.89025ZM4.5 20.3299V18.8299H9V20.3299H4.5Z" fill="#0083FD"/>
</g>
</g>
</svg>
