<svg width="24" height="25" viewBox="0 0 24 25" fill="none" xmlns="http://www.w3.org/2000/svg">
<g id="SVG">
<g id="Group">
<path id="Vector" opacity="0.2" d="M21 6.07983V20.3298L18 18.8298L15 20.3298L12 18.8298L9 20.3298L6 18.8298L3 20.3298V6.07983C3 5.88092 3.07902 5.69016 3.21967 5.5495C3.36032 5.40885 3.55109 5.32983 3.75 5.32983H20.25C20.4489 5.32983 20.6397 5.40885 20.7803 5.5495C20.921 5.69016 21 5.88092 21 6.07983Z" fill="#B742BD"/>
<path id="Vector_2" d="M6.75 10.5798C6.75 10.3809 6.82902 10.1902 6.96967 10.0495C7.11032 9.90885 7.30109 9.82983 7.5 9.82983H16.5C16.6989 9.82983 16.8897 9.90885 17.0303 10.0495C17.171 10.1902 17.25 10.3809 17.25 10.5798C17.25 10.7787 17.171 10.9695 17.0303 11.1102C16.8897 11.2508 16.6989 11.3298 16.5 11.3298H7.5C7.30109 11.3298 7.11032 11.2508 6.96967 11.1102C6.82902 10.9695 6.75 10.7787 6.75 10.5798ZM7.5 14.3298H16.5C16.6989 14.3298 16.8897 14.2508 17.0303 14.1102C17.171 13.9695 17.25 13.7787 17.25 13.5798C17.25 13.3809 17.171 13.1902 17.0303 13.0495C16.8897 12.9089 16.6989 12.8298 16.5 12.8298H7.5C7.30109 12.8298 7.11032 12.9089 6.96967 13.0495C6.82902 13.1902 6.75 13.3809 6.75 13.5798C6.75 13.7787 6.82902 13.9695 6.96967 14.1102C7.11032 14.2508 7.30109 14.3298 7.5 14.3298ZM21.75 6.07983V20.3298C21.7499 20.4577 21.7172 20.5834 21.6549 20.695C21.5926 20.8066 21.5028 20.9004 21.394 20.9676C21.2853 21.0347 21.1611 21.073 21.0334 21.0787C20.9057 21.0844 20.7787 21.0574 20.6644 21.0001L18 19.668L15.3356 21.0001C15.2314 21.0523 15.1165 21.0794 15 21.0794C14.8835 21.0794 14.7686 21.0523 14.6644 21.0001L12 19.668L9.33563 21.0001C9.23143 21.0523 9.11652 21.0794 9 21.0794C8.88348 21.0794 8.76857 21.0523 8.66437 21.0001L6 19.668L3.33563 21.0001C3.22131 21.0574 3.09427 21.0844 2.96657 21.0787C2.83887 21.073 2.71474 21.0347 2.60597 20.9676C2.49721 20.9004 2.40741 20.8066 2.34511 20.695C2.28281 20.5834 2.25007 20.4577 2.25 20.3298V6.07983C2.25 5.68201 2.40804 5.30048 2.68934 5.01917C2.97064 4.73787 3.35218 4.57983 3.75 4.57983H20.25C20.6478 4.57983 21.0294 4.73787 21.3107 5.01917C21.592 5.30048 21.75 5.68201 21.75 6.07983ZM20.25 6.07983H3.75V19.1167L5.66437 18.1586C5.76857 18.1064 5.88349 18.0793 6 18.0793C6.11651 18.0793 6.23143 18.1064 6.33563 18.1586L9 19.4917L11.6644 18.1586C11.7686 18.1064 11.8835 18.0793 12 18.0793C12.1165 18.0793 12.2314 18.1064 12.3356 18.1586L15 19.4917L17.6644 18.1586C17.7686 18.1064 17.8835 18.0793 18 18.0793C18.1165 18.0793 18.2314 18.1064 18.3356 18.1586L20.25 19.1167V6.07983Z" fill="#B742BD"/>
</g>
</g>
</svg>
