<svg width="24" height="25" viewBox="0 0 24 25" fill="none" xmlns="http://www.w3.org/2000/svg">
<g id="SVG">
<g id="Group">
<path id="Vector" opacity="0.2" d="M16.9612 9.07983L12 12.8298L7.00031 9.07983H16.9612Z" fill="#FF9900"/>
<path id="Vector_2" d="M18.75 7.92108V4.57983C18.75 4.18201 18.592 3.80048 18.3107 3.51917C18.0294 3.23787 17.6478 3.07983 17.25 3.07983H6.75C6.35218 3.07983 5.97064 3.23787 5.68934 3.51917C5.40804 3.80048 5.25 4.18201 5.25 4.57983V7.95483C5.25051 8.18761 5.30495 8.41711 5.40905 8.62531C5.51315 8.83351 5.66408 9.01476 5.85 9.15483L10.7503 12.8298L5.85 16.5048C5.66408 16.6449 5.51315 16.8262 5.40905 17.0344C5.30495 17.2426 5.25051 17.4721 5.25 17.7048V21.0798C5.25 21.4777 5.40804 21.8592 5.68934 22.1405C5.97064 22.4218 6.35218 22.5798 6.75 22.5798H17.25C17.6478 22.5798 18.0294 22.4218 18.3107 22.1405C18.592 21.8592 18.75 21.4777 18.75 21.0798V17.7386C18.7495 17.5067 18.6955 17.2781 18.5922 17.0704C18.489 16.8628 18.3393 16.6818 18.1547 16.5414L13.2441 12.8298L18.1547 9.11827C18.3393 8.9779 18.489 8.79687 18.5922 8.58924C18.6955 8.38161 18.7495 8.15297 18.75 7.92108ZM6.75 4.57983H17.25V7.92108L16.7091 8.32983H7.24969L6.75 7.95483V4.57983ZM12 11.8923L9.25031 9.82983H14.7253L12 11.8923ZM17.25 21.0798H6.75V17.7048L11.25 14.3298V16.5798C11.25 16.7787 11.329 16.9695 11.4697 17.1102C11.6103 17.2508 11.8011 17.3298 12 17.3298C12.1989 17.3298 12.3897 17.2508 12.5303 17.1102C12.671 16.9695 12.75 16.7787 12.75 16.5798V14.3373L17.25 17.7386V21.0798Z" fill="#FF9900"/>
</g>
</g>
</svg>
