<svg width="24" height="25" viewBox="0 0 24 25" fill="none" xmlns="http://www.w3.org/2000/svg">
<g id="SVG">
<g id="Group">
<path id="Vector" opacity="0.2" d="M20.25 5.32983V9.07983H3.75V5.32983C3.75 5.13092 3.82902 4.94016 3.96967 4.7995C4.11032 4.65885 4.30109 4.57983 4.5 4.57983H19.5C19.6989 4.57983 19.8897 4.65885 20.0303 4.7995C20.171 4.94016 20.25 5.13092 20.25 5.32983Z" fill="#42AB3B"/>
<path id="Vector_2" d="M19.5 3.82983H17.25V3.07983C17.25 2.88092 17.171 2.69016 17.0303 2.5495C16.8897 2.40885 16.6989 2.32983 16.5 2.32983C16.3011 2.32983 16.1103 2.40885 15.9697 2.5495C15.829 2.69016 15.75 2.88092 15.75 3.07983V3.82983H8.25V3.07983C8.25 2.88092 8.17098 2.69016 8.03033 2.5495C7.88968 2.40885 7.69891 2.32983 7.5 2.32983C7.30109 2.32983 7.11032 2.40885 6.96967 2.5495C6.82902 2.69016 6.75 2.88092 6.75 3.07983V3.82983H4.5C4.10218 3.82983 3.72064 3.98787 3.43934 4.26917C3.15804 4.55048 3 4.93201 3 5.32983V20.3298C3 20.7277 3.15804 21.1092 3.43934 21.3905C3.72064 21.6718 4.10218 21.8298 4.5 21.8298H19.5C19.8978 21.8298 20.2794 21.6718 20.5607 21.3905C20.842 21.1092 21 20.7277 21 20.3298V5.32983C21 4.93201 20.842 4.55048 20.5607 4.26917C20.2794 3.98787 19.8978 3.82983 19.5 3.82983ZM6.75 5.32983V6.07983C6.75 6.27875 6.82902 6.46951 6.96967 6.61016C7.11032 6.75082 7.30109 6.82983 7.5 6.82983C7.69891 6.82983 7.88968 6.75082 8.03033 6.61016C8.17098 6.46951 8.25 6.27875 8.25 6.07983V5.32983H15.75V6.07983C15.75 6.27875 15.829 6.46951 15.9697 6.61016C16.1103 6.75082 16.3011 6.82983 16.5 6.82983C16.6989 6.82983 16.8897 6.75082 17.0303 6.61016C17.171 6.46951 17.25 6.27875 17.25 6.07983V5.32983H19.5V8.32983H4.5V5.32983H6.75ZM19.5 20.3298H4.5V9.82983H19.5V20.3298ZM13.125 13.2048C13.125 13.4273 13.059 13.6448 12.9354 13.8299C12.8118 14.0149 12.6361 14.159 12.4305 14.2442C12.225 14.3293 11.9988 14.3516 11.7805 14.3082C11.5623 14.2648 11.3618 14.1577 11.2045 14.0003C11.0472 13.843 10.94 13.6425 10.8966 13.4243C10.8532 13.2061 10.8755 12.9799 10.9606 12.7743C11.0458 12.5687 11.19 12.393 11.375 12.2694C11.56 12.1458 11.7775 12.0798 12 12.0798C12.2984 12.0798 12.5845 12.1984 12.7955 12.4093C13.0065 12.6203 13.125 12.9065 13.125 13.2048ZM17.25 13.2048C17.25 13.4273 17.184 13.6448 17.0604 13.8299C16.9368 14.0149 16.7611 14.159 16.5555 14.2442C16.35 14.3293 16.1238 14.3516 15.9055 14.3082C15.6873 14.2648 15.4868 14.1577 15.3295 14.0003C15.1722 13.843 15.065 13.6425 15.0216 13.4243C14.9782 13.2061 15.0005 12.9799 15.0856 12.7743C15.1708 12.5687 15.315 12.393 15.5 12.2694C15.685 12.1458 15.9025 12.0798 16.125 12.0798C16.4234 12.0798 16.7095 12.1984 16.9205 12.4093C17.1315 12.6203 17.25 12.9065 17.25 13.2048ZM9 16.9548C9 17.1773 8.93402 17.3948 8.8104 17.5799C8.68679 17.7649 8.51109 17.909 8.30552 17.9942C8.09995 18.0793 7.87375 18.1016 7.65552 18.0582C7.43729 18.0148 7.23684 17.9077 7.0795 17.7503C6.92217 17.593 6.81502 17.3925 6.77162 17.1743C6.72821 16.9561 6.75049 16.7299 6.83564 16.5243C6.92078 16.3187 7.06498 16.143 7.24998 16.0194C7.43499 15.8958 7.6525 15.8298 7.875 15.8298C8.17337 15.8298 8.45952 15.9484 8.6705 16.1593C8.88147 16.3703 9 16.6565 9 16.9548ZM13.125 16.9548C13.125 17.1773 13.059 17.3948 12.9354 17.5799C12.8118 17.7649 12.6361 17.909 12.4305 17.9942C12.225 18.0793 11.9988 18.1016 11.7805 18.0582C11.5623 18.0148 11.3618 17.9077 11.2045 17.7503C11.0472 17.593 10.94 17.3925 10.8966 17.1743C10.8532 16.9561 10.8755 16.7299 10.9606 16.5243C11.0458 16.3187 11.19 16.143 11.375 16.0194C11.56 15.8958 11.7775 15.8298 12 15.8298C12.2984 15.8298 12.5845 15.9484 12.7955 16.1593C13.0065 16.3703 13.125 16.6565 13.125 16.9548ZM17.25 16.9548C17.25 17.1773 17.184 17.3948 17.0604 17.5799C16.9368 17.7649 16.7611 17.909 16.5555 17.9942C16.35 18.0793 16.1238 18.1016 15.9055 18.0582C15.6873 18.0148 15.4868 17.9077 15.3295 17.7503C15.1722 17.593 15.065 17.3925 15.0216 17.1743C14.9782 16.9561 15.0005 16.7299 15.0856 16.5243C15.1708 16.3187 15.315 16.143 15.5 16.0194C15.685 15.8958 15.9025 15.8298 16.125 15.8298C16.4234 15.8298 16.7095 15.9484 16.9205 16.1593C17.1315 16.3703 17.25 16.6565 17.25 16.9548Z" fill="#42AB3B"/>
</g>
</g>
</svg>
