<svg width="24" height="25" viewBox="0 0 24 25" fill="none" xmlns="http://www.w3.org/2000/svg">
<g id="SVG">
<g id="Group">
<path id="Vector" d="M21 19.5498H20.25V4.5498C20.25 4.35089 20.171 4.16013 20.0303 4.01947C19.8897 3.87882 19.6989 3.7998 19.5 3.7998H14.25C14.0511 3.7998 13.8603 3.87882 13.7197 4.01947C13.579 4.16013 13.5 4.35089 13.5 4.5498V8.2998H9C8.80109 8.2998 8.61032 8.37882 8.46967 8.51947C8.32902 8.66013 8.25 8.85089 8.25 9.0498V12.7998H4.5C4.30109 12.7998 4.11032 12.8788 3.96967 13.0195C3.82902 13.1601 3.75 13.3509 3.75 13.5498V19.5498H3C2.80109 19.5498 2.61032 19.6288 2.46967 19.7695C2.32902 19.9101 2.25 20.1009 2.25 20.2998C2.25 20.4987 2.32902 20.6895 2.46967 20.8301C2.61032 20.9708 2.80109 21.0498 3 21.0498H21C21.1989 21.0498 21.3897 20.9708 21.5303 20.8301C21.671 20.6895 21.75 20.4987 21.75 20.2998C21.75 20.1009 21.671 19.9101 21.5303 19.7695C21.3897 19.6288 21.1989 19.5498 21 19.5498ZM15 5.2998H18.75V19.5498H15V5.2998ZM9.75 9.7998H13.5V19.5498H9.75V9.7998ZM5.25 14.2998H8.25V19.5498H5.25V14.2998Z" fill="#666666"/>
</g>
</g>
</svg>
