<svg width="24" height="25" viewBox="0 0 24 25" fill="none" xmlns="http://www.w3.org/2000/svg">
<g id="SVG">
<g id="Group">
<path id="Vector" opacity="0.2" d="M21.75 8.32983V16.6633C21.75 16.8401 21.6798 17.0096 21.5548 17.1346C21.4298 17.2596 21.2602 17.3298 21.0834 17.3298H18.75V11.3298C18.75 11.1309 18.671 10.9402 18.5303 10.7995C18.3897 10.6589 18.1989 10.5798 18 10.5798H11.25L8.44969 8.47983C8.31987 8.38247 8.16197 8.32983 7.99969 8.32983H6V6.07983C6 5.88092 6.07902 5.69016 6.21967 5.5495C6.36032 5.40885 6.55109 5.32983 6.75 5.32983H10.9997C11.162 5.32983 11.3199 5.38247 11.4497 5.47983L14.25 7.57983H21C21.1989 7.57983 21.3897 7.65885 21.5303 7.7995C21.671 7.94016 21.75 8.13092 21.75 8.32983Z" fill="#42AB3B"/>
<path id="Vector_2" d="M21 6.82983H14.5003L11.8997 4.87983C11.6397 4.68582 11.3241 4.58064 10.9997 4.57983H6.75C6.35218 4.57983 5.97064 4.73787 5.68934 5.01917C5.40804 5.30048 5.25 5.68201 5.25 6.07983V7.57983H3.75C3.35218 7.57983 2.97064 7.73787 2.68934 8.01917C2.40804 8.30048 2.25 8.68201 2.25 9.07983V19.5798C2.25 19.9777 2.40804 20.3592 2.68934 20.6405C2.97064 20.9218 3.35218 21.0798 3.75 21.0798H18.0834C18.459 21.0793 18.819 20.9299 19.0846 20.6644C19.3501 20.3988 19.4995 20.0388 19.5 19.6633V18.0798H21.0834C21.459 18.0793 21.819 17.9299 22.0846 17.6644C22.3501 17.3988 22.4995 17.0388 22.5 16.6633V8.32983C22.5 7.93201 22.342 7.55048 22.0607 7.26917C21.7794 6.98787 21.3978 6.82983 21 6.82983ZM18 19.5798H3.75V9.07983H7.99969L10.8 11.1798C10.9298 11.2772 11.0877 11.3298 11.25 11.3298H18V19.5798ZM21 16.5798H19.5V11.3298C19.5 10.932 19.342 10.5505 19.0607 10.2692C18.7794 9.98787 18.3978 9.82983 18 9.82983H11.5003L8.89969 7.87983C8.63967 7.68582 8.32411 7.58064 7.99969 7.57983H6.75V6.07983H10.9997L13.8 8.17983C13.9298 8.2772 14.0877 8.32983 14.25 8.32983H21V16.5798Z" fill="#42AB3B"/>
</g>
</g>
</svg>
