<svg width="24" height="25" viewBox="0 0 24 25" fill="none" xmlns="http://www.w3.org/2000/svg">
<g id="SVG">
<g id="Group">
<path id="Vector" d="M20.7937 17.2942C20.2734 16.3979 19.5 13.862 19.5 10.5498C19.5 8.56068 18.7098 6.65303 17.3033 5.2465C15.8968 3.83998 13.9891 3.0498 12 3.0498C10.0109 3.0498 8.10322 3.83998 6.6967 5.2465C5.29017 6.65303 4.5 8.56068 4.5 10.5498C4.5 13.8629 3.72562 16.3979 3.20531 17.2942C3.07244 17.522 3.002 17.7809 3.00109 18.0447C3.00019 18.3084 3.06885 18.5678 3.20015 18.7965C3.33146 19.0253 3.52076 19.2154 3.74897 19.3476C3.97718 19.4799 4.23623 19.5496 4.5 19.5498H8.32593C8.49897 20.3965 8.95914 21.1575 9.62862 21.704C10.2981 22.2505 11.1358 22.549 12 22.549C12.8642 22.549 13.7019 22.2505 14.3714 21.704C15.0408 21.1575 15.501 20.3965 15.6741 19.5498H19.5C19.7637 19.5494 20.0226 19.4796 20.2507 19.3473C20.4788 19.2149 20.6679 19.0248 20.7991 18.7961C20.9303 18.5674 20.9989 18.3081 20.998 18.0444C20.997 17.7807 20.9266 17.522 20.7937 17.2942ZM12 21.0498C11.5348 21.0497 11.0811 20.9053 10.7014 20.6367C10.3216 20.3681 10.0344 19.9884 9.87937 19.5498H14.1206C13.9656 19.9884 13.6784 20.3681 13.2986 20.6367C12.9189 20.9053 12.4652 21.0497 12 21.0498ZM4.5 18.0498C5.22187 16.8086 6 13.9323 6 10.5498C6 8.95851 6.63214 7.43238 7.75736 6.30716C8.88257 5.18195 10.4087 4.5498 12 4.5498C13.5913 4.5498 15.1174 5.18195 16.2426 6.30716C17.3679 7.43238 18 8.95851 18 10.5498C18 13.9295 18.7762 16.8057 19.5 18.0498H4.5Z" fill="#0083FD"/>
</g>
</g>
</svg>
