<svg width="18" height="19" viewBox="0 0 18 19" fill="none" xmlns="http://www.w3.org/2000/svg">
<g id="SVG">
<g id="Group">
<path id="Vector" d="M11.5622 8.72215L8.18719 6.47215C8.10246 6.41562 8.00396 6.38316 7.90222 6.37823C7.80048 6.3733 7.69931 6.39609 7.60951 6.44416C7.51971 6.49224 7.44465 6.5638 7.39234 6.6512C7.34003 6.7386 7.31243 6.83857 7.3125 6.94043V11.4404C7.31243 11.5423 7.34003 11.6423 7.39234 11.7297C7.44465 11.8171 7.51971 11.8886 7.60951 11.9367C7.69931 11.9848 7.80048 12.0076 7.90222 12.0026C8.00396 11.9977 8.10246 11.9652 8.18719 11.9087L11.5622 9.65871C11.6393 9.60737 11.7026 9.53775 11.7464 9.45605C11.7901 9.37436 11.813 9.28311 11.813 9.19043C11.813 9.09775 11.7901 9.00651 11.7464 8.92481C11.7026 8.84311 11.6393 8.7735 11.5622 8.72215ZM8.4375 10.3893V7.99512L10.2361 9.19043L8.4375 10.3893ZM16.4763 5.07856C16.4101 4.81935 16.2831 4.57961 16.106 4.37911C15.9289 4.17862 15.7066 4.02311 15.4575 3.92543C13.0472 2.99449 9.21094 3.00293 9 3.00293C8.78906 3.00293 4.95281 2.99449 2.5425 3.92543C2.29343 4.02311 2.07115 4.17862 1.894 4.37911C1.71686 4.57961 1.58992 4.81935 1.52367 5.07856C1.34156 5.78028 1.125 7.06278 1.125 9.19043C1.125 11.3181 1.34156 12.6006 1.52367 13.3023C1.58983 13.5616 1.71672 13.8015 1.89387 14.0022C2.07102 14.2028 2.29335 14.3584 2.5425 14.4561C4.85156 15.347 8.46562 15.3779 8.95359 15.3779H9.04641C9.53438 15.3779 13.1505 15.347 15.4575 14.4561C15.7067 14.3584 15.929 14.2028 16.1061 14.0022C16.2833 13.8015 16.4102 13.5616 16.4763 13.3023C16.6584 12.5992 16.875 11.3181 16.875 9.19043C16.875 7.06278 16.6584 5.78028 16.4763 5.07856ZM15.3872 13.0239C15.3658 13.1101 15.3242 13.1901 15.2659 13.2572C15.2076 13.3243 15.1342 13.3766 15.0518 13.4099C12.8264 14.2691 9.04148 14.2536 9.00492 14.2536H9C8.96203 14.2536 5.17992 14.2677 2.95312 13.4099C2.8707 13.3766 2.79733 13.3243 2.73903 13.2572C2.68073 13.1901 2.63916 13.1101 2.61773 13.0239C2.44687 12.3819 2.25 11.1993 2.25 9.19043C2.25 7.1816 2.44687 5.99895 2.61281 5.36051C2.63384 5.27373 2.67523 5.19321 2.73355 5.12559C2.79187 5.05798 2.86545 5.00522 2.9482 4.97168C5.09414 4.1427 8.68992 4.12793 8.98453 4.12793H9.00352C9.04148 4.12793 12.8271 4.11528 15.0504 4.97168C15.1328 5.00495 15.2062 5.05728 15.2645 5.12437C15.3228 5.19147 15.3644 5.27143 15.3858 5.3577C15.5531 5.99895 15.75 7.1816 15.75 9.19043C15.75 11.1993 15.5531 12.3819 15.3872 13.0204V13.0239Z" fill="white"/>
</g>
</g>
</svg>
