<svg width="70" height="21" viewBox="0 0 70 21" fill="none" xmlns="http://www.w3.org/2000/svg">
<g id="svg8874411954" clip-path="url(#clip0_1_56)">
<path id="Vector" d="M-2.00904 17.7149C-1.43104 18.2259 -0.513041 18.4809 0.745959 18.4809C1.96296 18.4809 2.84796 18.2259 3.39996 17.7139C3.95896 17.2039 4.26696 16.3639 4.32296 15.1949C4.33496 14.9919 4.33796 14.7579 4.33096 14.4929C4.33196 14.3269 4.32296 14.1599 4.30396 13.9949H1.61296C1.62496 14.3149 1.63096 14.6069 1.63096 14.8719C1.63096 15.1359 1.62496 15.3429 1.61296 15.4899C1.59396 15.8229 1.51696 16.0589 1.38296 16.2009C1.25396 16.3429 1.04196 16.4129 0.745959 16.4129C0.413959 16.4129 0.174961 16.3429 0.0269608 16.2009C-0.120039 16.0589 -0.200038 15.8229 -0.211038 15.4899C-0.218038 15.1389 -0.228041 14.7729 -0.240041 14.3919C-0.246041 14.0039 -0.248041 13.6129 -0.248041 13.2189H4.30396C4.32296 12.8739 4.33096 12.4989 4.33096 12.0929C4.33496 11.8579 4.33696 11.6349 4.33596 11.4229L4.33096 10.9669L4.32996 10.5629C4.32796 10.4579 4.32596 10.3519 4.32296 10.2469C4.26696 9.10291 3.95896 8.28091 3.40096 7.78191C2.84096 7.28391 1.94496 7.03491 0.70996 7.03491C-0.525041 7.03491 -1.42904 7.28991 -2.00004 7.80091C-2.56604 8.31191 -2.89004 9.16391 -2.97704 10.3579L-2.98804 10.6019L-2.99804 10.9739L-3.00404 11.3729C-3.01904 12.3269 -3.01904 13.2809 -3.00404 14.2349L-3.00204 14.3999L-2.99504 14.7349L-2.98704 14.9769L-2.97704 15.1949C-2.90904 16.3639 -2.58604 17.2029 -2.00904 17.7149ZM1.63096 11.3179H-0.24904C-0.23604 11.0779 -0.231039 10.8439 -0.231039 10.6159L-0.211038 9.93191C-0.209038 9.83291 -0.19504 9.73391 -0.17204 9.63691C-0.14304 9.50691 -0.077038 9.38791 0.017962 9.29591C0.159962 9.16691 0.38996 9.10191 0.70996 9.10191C1.01696 9.10191 1.23796 9.16691 1.37296 9.29591C1.46796 9.38791 1.53496 9.50491 1.56596 9.63391L1.57696 9.67891L1.58996 9.73391C1.60096 9.79591 1.60796 9.86191 1.61296 9.93291V10.1919C1.61896 10.3269 1.62096 10.4929 1.62096 10.6899C1.62796 10.8869 1.63096 11.0959 1.63096 11.3179Z" fill="#666666"/>
<path id="Vector_2" d="M10.073 11.483L10.077 11.39L10.08 11.299L10.082 11.004C10.088 10.788 10.088 10.579 10.082 10.376C10.082 10.168 10.079 10.019 10.073 9.933C10.054 9.638 9.97495 9.425 9.83295 9.296C9.69795 9.167 9.47596 9.103 9.16996 9.103C8.85096 9.103 8.61895 9.167 8.47895 9.296C8.33695 9.425 8.25996 9.638 8.24796 9.933C8.23496 10.37 8.22696 10.825 8.21996 11.3L8.21296 12.058L8.21196 12.73L8.21296 13.364L8.21996 14.152C8.22696 14.613 8.23496 15.059 8.24796 15.49C8.25096 15.573 8.25795 15.652 8.27095 15.723C8.28695 15.822 8.31095 15.909 8.34195 15.985C8.37595 16.066 8.42495 16.139 8.48695 16.201C8.63495 16.343 8.87495 16.413 9.20695 16.413C9.50096 16.413 9.71395 16.343 9.84195 16.201C9.88695 16.154 9.92495 16.099 9.95195 16.04L9.97696 15.983L9.99696 15.928L10.008 15.895L10.022 15.844C10.034 15.798 10.044 15.749 10.052 15.697C10.068 15.577 10.078 15.456 10.082 15.335L10.086 15.213C10.09 15.113 10.091 14.999 10.091 14.872C10.091 14.607 10.085 14.315 10.073 13.995H12.764C12.776 14.056 12.786 14.223 12.792 14.493C12.796 14.691 12.795 14.889 12.788 15.087L12.783 15.195C12.727 16.364 12.42 17.203 11.861 17.715C11.308 18.226 10.423 18.481 9.20695 18.481C7.94595 18.481 7.02895 18.226 6.45095 17.714C5.87395 17.204 5.55096 16.364 5.48296 15.195C5.46796 14.875 5.45896 14.555 5.45596 14.235L5.44896 13.712L5.44796 13.436L5.44595 12.813V12.37L5.44896 11.925L5.45596 11.373C5.45896 11.035 5.46796 10.696 5.48296 10.357C5.56896 9.164 5.89495 8.312 6.45995 7.801C7.03195 7.29 7.93496 7.034 9.16996 7.034C10.404 7.034 11.301 7.284 11.861 7.782C12.42 8.281 12.727 9.102 12.783 10.247C12.794 10.45 12.798 10.69 12.791 10.967L12.783 11.227L12.776 11.367C12.772 11.42 12.768 11.458 12.764 11.483H10.073ZM14.063 3.527V18.296H16.828V9.842C16.939 9.602 17.135 9.411 17.418 9.269C17.546 9.203 17.67 9.151 17.791 9.114C17.877 9.087 17.962 9.069 18.044 9.058L18.112 9.052C18.146 9.049 18.178 9.048 18.211 9.048C18.499 9.048 18.717 9.118 18.865 9.26C18.988 9.374 19.062 9.538 19.086 9.752C19.092 9.803 19.094 9.858 19.094 9.916V18.297H21.86V10.155C21.86 9.036 21.642 8.236 21.205 7.755C20.776 7.275 20.176 7.036 19.408 7.036C18.831 7.036 18.401 7.155 18.118 7.396C17.835 7.636 17.565 7.977 17.307 8.421H16.828V3.526L14.063 3.527ZM23.315 18.296V3.527H29.692V5.964H26.079V9.564H29.508V12.001H26.08V18.296H23.315ZM31.276 17.761C31.737 18.241 32.349 18.481 33.111 18.481C33.238 18.481 33.361 18.473 33.478 18.456L33.546 18.446L33.614 18.434C33.854 18.39 34.084 18.299 34.29 18.168C34.5 18.031 34.699 17.838 34.889 17.59C35 17.445 35.107 17.28 35.212 17.096H35.58V18.296H38.345V7.219H35.58V15.675C35.47 15.915 35.273 16.108 34.99 16.256C34.714 16.397 34.45 16.468 34.198 16.468C34.074 16.468 33.964 16.455 33.868 16.428C33.806 16.411 33.745 16.386 33.689 16.353C33.643 16.326 33.6 16.294 33.562 16.256C33.42 16.114 33.35 15.896 33.35 15.601V7.219H30.585V15.361C30.585 16.475 30.816 17.274 31.276 17.761ZM43.064 18.481C41.878 18.481 41.027 18.226 40.512 17.714C39.995 17.204 39.71 16.364 39.655 15.195C39.649 14.961 39.649 14.727 39.655 14.493L39.665 14.094L39.672 13.994H42.087C42.082 14.315 42.079 14.607 42.079 14.872C42.079 15.136 42.082 15.343 42.087 15.49C42.106 15.823 42.197 16.059 42.364 16.201C42.536 16.343 42.769 16.413 43.064 16.413C43.445 16.413 43.721 16.343 43.894 16.201C44.066 16.059 44.152 15.823 44.152 15.49V14.899C44.157 14.731 44.108 14.567 44.014 14.428C43.965 14.353 43.899 14.29 43.82 14.246C43.739 14.201 43.652 14.166 43.562 14.143L42.253 13.773C41.753 13.636 41.273 13.434 40.824 13.173C40.444 12.952 40.127 12.638 39.903 12.259C39.688 11.89 39.581 11.434 39.581 10.893V10.376C39.581 9.183 39.851 8.327 40.392 7.81C40.933 7.293 41.866 7.035 43.193 7.035C44.391 7.035 45.242 7.284 45.746 7.783C46.25 8.281 46.529 9.103 46.584 10.247C46.593 10.374 46.597 10.515 46.597 10.672C46.597 10.764 46.597 10.863 46.594 10.967C46.594 11.139 46.585 11.312 46.566 11.483H44.059C44.066 11.373 44.068 11.213 44.068 11.004C44.075 10.788 44.075 10.579 44.068 10.376C44.07 10.228 44.067 10.081 44.059 9.933C44.054 9.826 44.037 9.72 44.01 9.617C43.982 9.497 43.923 9.386 43.839 9.296C43.753 9.213 43.645 9.158 43.528 9.136L43.46 9.123L43.392 9.112L43.353 9.109L43.309 9.106C43.27 9.104 43.231 9.102 43.192 9.103C42.861 9.103 42.628 9.167 42.493 9.296C42.357 9.425 42.284 9.638 42.272 9.933C42.268 10.032 42.261 10.13 42.253 10.228V10.653C42.253 10.881 42.296 11.074 42.382 11.235C42.405 11.277 42.434 11.316 42.468 11.349C42.499 11.38 42.535 11.408 42.577 11.435C42.632 11.469 42.694 11.5 42.766 11.527L42.827 11.547C42.861 11.557 42.898 11.567 42.935 11.576L44.078 11.853C44.938 12.056 45.589 12.379 46.032 12.822C46.474 13.259 46.695 13.903 46.695 14.752V15.268C46.695 16.413 46.416 17.235 45.857 17.733C45.297 18.232 44.366 18.481 43.064 18.481ZM47.93 3.527V5.613H50.695V3.527H47.93ZM47.93 7.219V18.296H50.695V7.219H47.93Z" fill="#666666"/>
<path id="Vector_3" d="M55.882 18.481C54.979 18.481 54.257 18.357 53.716 18.112C53.192 17.876 52.773 17.455 52.537 16.93C52.285 16.383 52.135 15.663 52.085 14.77L52.058 13.93L52.052 13.56C52.05 13.302 52.048 13.043 52.048 12.785L52.051 12.282L52.052 11.988L52.058 11.622C52.062 11.323 52.071 11.025 52.085 10.727C52.099 10.48 52.121 10.246 52.15 10.026C52.225 9.46098 52.351 8.98398 52.527 8.59498C52.763 8.06998 53.183 7.64898 53.707 7.41298C53.978 7.29098 54.263 7.20098 54.556 7.14798C54.993 7.06798 55.437 7.02998 55.882 7.03498C56.798 7.03498 57.519 7.15998 58.049 7.41298C58.211 7.48898 58.365 7.58298 58.507 7.69298C58.812 7.92798 59.049 8.23198 59.218 8.60398C59.464 9.14598 59.612 9.85298 59.661 10.727L59.673 10.954L59.681 11.21L59.688 11.577C59.701 12.343 59.701 13.109 59.688 13.875C59.683 14.238 59.673 14.536 59.661 14.77C59.612 15.65 59.464 16.364 59.218 16.912C58.987 17.438 58.571 17.862 58.049 18.103C57.894 18.175 57.734 18.235 57.57 18.281C57.375 18.336 57.176 18.379 56.975 18.408C56.613 18.459 56.248 18.483 55.882 18.481ZM55.882 16.413C56.088 16.413 56.26 16.388 56.397 16.336C56.495 16.302 56.583 16.247 56.656 16.173C56.758 16.063 56.828 15.922 56.865 15.752L56.88 15.663C56.89 15.602 56.895 15.538 56.896 15.471L56.911 14.873C56.916 14.638 56.92 14.397 56.924 14.152C56.936 13.69 56.942 13.223 56.942 12.748L56.941 12.468C56.94 12.265 56.938 12.062 56.935 11.86L56.924 11.355L56.915 10.778L56.896 10.026C56.89 9.72998 56.81 9.50298 56.656 9.34298C56.503 9.18298 56.245 9.10298 55.882 9.10298C55.532 9.10298 55.274 9.18298 55.108 9.34298C55.037 9.41298 54.981 9.49798 54.942 9.58998C54.912 9.65798 54.889 9.72998 54.875 9.80298C54.867 9.84398 54.86 9.88698 54.857 9.92998L54.85 10.026L54.838 10.488C54.82 11.245 54.812 12.001 54.814 12.758C54.814 13.226 54.816 13.69 54.822 14.152L54.834 14.807C54.838 15.034 54.844 15.256 54.85 15.472C54.862 15.773 54.948 16.007 55.108 16.173C55.274 16.333 55.532 16.413 55.882 16.413Z" fill="#666666"/>
<path id="Vector_4" d="M63.826 7.21901H61.061V18.296H63.826V9.84201C63.873 9.73801 63.937 9.64401 64.016 9.55901C64.121 9.44701 64.254 9.35001 64.416 9.26901C64.699 9.12201 64.962 9.04701 65.209 9.04701C65.497 9.04701 65.715 9.11801 65.863 9.26001C66.016 9.40201 66.092 9.62001 66.092 9.91601V18.297H68.858V10.155C68.858 9.03601 68.64 8.23601 68.203 7.75501C67.774 7.27501 67.174 7.03601 66.406 7.03601C65.829 7.03601 65.399 7.15501 65.116 7.39601C65.043 7.45901 64.973 7.52601 64.906 7.59601C64.814 7.69201 64.724 7.79901 64.635 7.91801C64.542 8.04301 64.454 8.17301 64.373 8.30701L64.305 8.42001H63.826V7.21901Z" fill="#666666"/>
</g>
<defs>
<clipPath id="clip0_1_56">
<rect width="104" height="20" fill="white" transform="translate(-34.91 0.449951)"/>
</clipPath>
</defs>
</svg>
