<svg width="18" height="19" viewBox="0 0 18 19" fill="none" xmlns="http://www.w3.org/2000/svg">
<g id="SVG">
<g id="Group">
<path id="Vector" d="M15.1875 1.87793H2.8125C2.51413 1.87793 2.22798 1.99646 2.017 2.20743C1.80603 2.41841 1.6875 2.70456 1.6875 3.00293V15.3779C1.6875 15.6763 1.80603 15.9624 2.017 16.1734C2.22798 16.3844 2.51413 16.5029 2.8125 16.5029H15.1875C15.4859 16.5029 15.772 16.3844 15.983 16.1734C16.194 15.9624 16.3125 15.6763 16.3125 15.3779V3.00293C16.3125 2.70456 16.194 2.41841 15.983 2.20743C15.772 1.99646 15.4859 1.87793 15.1875 1.87793ZM15.1875 15.3779H2.8125V3.00293H15.1875V15.3779ZM6.75 8.06543V12.5654C6.75 12.7146 6.69074 12.8577 6.58525 12.9632C6.47976 13.0687 6.33668 13.1279 6.1875 13.1279C6.03832 13.1279 5.89524 13.0687 5.78975 12.9632C5.68426 12.8577 5.625 12.7146 5.625 12.5654V8.06543C5.625 7.91625 5.68426 7.77317 5.78975 7.66768C5.89524 7.56219 6.03832 7.50293 6.1875 7.50293C6.33668 7.50293 6.47976 7.56219 6.58525 7.66768C6.69074 7.77317 6.75 7.91625 6.75 8.06543ZM12.9375 10.0342V12.5654C12.9375 12.7146 12.8782 12.8577 12.7727 12.9632C12.6673 13.0687 12.5242 13.1279 12.375 13.1279C12.2258 13.1279 12.0827 13.0687 11.9773 12.9632C11.8718 12.8577 11.8125 12.7146 11.8125 12.5654V10.0342C11.8125 9.66122 11.6643 9.30353 11.4006 9.03981C11.1369 8.77609 10.7792 8.62793 10.4062 8.62793C10.0333 8.62793 9.6756 8.77609 9.41188 9.03981C9.14816 9.30353 9 9.66122 9 10.0342V12.5654C9 12.7146 8.94074 12.8577 8.83525 12.9632C8.72976 13.0687 8.58668 13.1279 8.4375 13.1279C8.28832 13.1279 8.14524 13.0687 8.03975 12.9632C7.93426 12.8577 7.875 12.7146 7.875 12.5654V8.06543C7.8757 7.92765 7.92694 7.79492 8.01901 7.69241C8.11108 7.5899 8.23757 7.52475 8.37448 7.50932C8.5114 7.49389 8.64922 7.52924 8.76179 7.60868C8.87437 7.68811 8.95388 7.80611 8.98523 7.94027C9.36576 7.68214 9.80941 7.53253 10.2685 7.50751C10.7277 7.4825 11.185 7.58302 11.5913 7.79829C11.9976 8.01355 12.3376 8.33543 12.5748 8.72935C12.8119 9.12327 12.9373 9.57436 12.9375 10.0342ZM7.03125 6.09668C7.03125 6.26356 6.98177 6.42669 6.88905 6.56544C6.79634 6.7042 6.66456 6.81234 6.51039 6.8762C6.35621 6.94006 6.18656 6.95677 6.02289 6.92422C5.85922 6.89166 5.70888 6.8113 5.59088 6.6933C5.47288 6.5753 5.39252 6.42496 5.35996 6.26129C5.32741 6.09762 5.34412 5.92797 5.40798 5.77379C5.47184 5.61962 5.57998 5.48784 5.71874 5.39513C5.85749 5.30241 6.02062 5.25293 6.1875 5.25293C6.41128 5.25293 6.62589 5.34182 6.78412 5.50006C6.94236 5.65829 7.03125 5.8729 7.03125 6.09668Z" fill="white"/>
</g>
</g>
</svg>
