<svg width="21" height="25" viewBox="0 0 21 25" fill="none" xmlns="http://www.w3.org/2000/svg">
<g id="svg8808459086" clip-path="url(#clip0_1_1099)">
<path id="Vector" d="M16.3298 13.7425C16.3618 11.8755 17.3398 10.1525 18.9268 9.16747C17.9098 7.73347 16.2839 6.85447 14.5269 6.78847C12.6769 6.59447 10.8819 7.89647 9.93885 7.89647C8.97785 7.89647 7.52485 6.80847 5.96185 6.84047C3.90685 6.91647 2.03985 8.05547 1.03185 9.84747C-1.09915 13.5375 0.490851 18.9625 2.53185 21.9445C3.55385 23.4045 4.74785 25.0365 6.30985 24.9805C7.83985 24.9165 8.40985 24.0045 10.2559 24.0045C12.0829 24.0045 12.6189 24.9805 14.2129 24.9445C15.8539 24.9175 16.8869 23.4755 17.8729 22.0005C18.6068 20.9605 19.1728 19.8105 19.5469 18.5935C17.6059 17.7595 16.3428 15.8555 16.3288 13.7435L16.3298 13.7425ZM13.3179 4.82747C14.2129 3.75347 14.6539 2.37347 14.5469 0.980469C13.1799 1.12447 11.9179 1.77747 11.0109 2.81047C10.1209 3.83147 9.66785 5.16147 9.75085 6.51347C11.1339 6.51947 12.4449 5.90047 13.3179 4.82747Z" fill="white"/>
</g>
<defs>
<clipPath id="clip0_1_1099">
<rect width="20" height="24" fill="white" transform="translate(0.0200195 0.980469)"/>
</clipPath>
</defs>
</svg>
