<svg width="18" height="19" viewBox="0 0 18 19" fill="none" xmlns="http://www.w3.org/2000/svg">
<g id="SVG">
<g id="Group">
<path id="Vector" d="M14.625 7.50293V3.00293C14.625 2.85375 14.5657 2.71067 14.4602 2.60518C14.3547 2.49969 14.2117 2.44043 14.0625 2.44043H3.93749C3.82312 2.44017 3.71139 2.47477 3.61719 2.53963C3.523 2.60448 3.45081 2.69651 3.41025 2.80345C3.36969 2.91038 3.36269 3.02714 3.39018 3.13815C3.41768 3.24916 3.47836 3.34916 3.56413 3.42481L7.52343 6.94043H3.93749C3.78831 6.94043 3.64523 6.99969 3.53974 7.10518C3.43425 7.21067 3.37499 7.35375 3.37499 7.50293V12.0029C3.37493 12.0768 3.38943 12.15 3.41766 12.2183C3.44589 12.2866 3.4873 12.3486 3.53952 12.4009L8.60202 17.4634C8.68069 17.5422 8.78096 17.5958 8.89013 17.6175C8.9993 17.6393 9.11247 17.6281 9.21531 17.5855C9.31815 17.5429 9.40603 17.4708 9.46783 17.3782C9.52964 17.2856 9.56258 17.1767 9.56249 17.0654V12.5654H14.0625C14.1769 12.5657 14.2886 12.5311 14.3828 12.4662C14.477 12.4014 14.5492 12.3093 14.5897 12.2024C14.6303 12.0955 14.6373 11.9787 14.6098 11.8677C14.5823 11.7567 14.5216 11.6567 14.4358 11.5811L10.4766 8.06543H14.0625C14.2117 8.06543 14.3547 8.00617 14.4602 7.90068C14.5657 7.79519 14.625 7.65212 14.625 7.50293ZM12.5859 11.4404H8.99999C8.85081 11.4404 8.70773 11.4997 8.60224 11.6052C8.49675 11.7107 8.43749 11.8537 8.43749 12.0029V15.7077L4.49999 11.7702V8.06543H8.78905L12.5859 11.4404ZM13.5 6.94043H9.21093L5.41405 3.56543H13.5V6.94043Z" fill="white"/>
</g>
</g>
</svg>
