<svg width="24" height="25" viewBox="0 0 24 25" fill="none" xmlns="http://www.w3.org/2000/svg">
<g id="SVG">
<g id="Group">
<path id="Vector" d="M7.5 12.0498H16.5C16.6989 12.0498 16.8897 11.9708 17.0303 11.8301C17.171 11.6895 17.25 11.4987 17.25 11.2998V6.7998C17.25 6.60089 17.171 6.41013 17.0303 6.26947C16.8897 6.12882 16.6989 6.0498 16.5 6.0498H7.5C7.30109 6.0498 7.11032 6.12882 6.96967 6.26947C6.82902 6.41013 6.75 6.60089 6.75 6.7998V11.2998C6.75 11.4987 6.82902 11.6895 6.96967 11.8301C7.11032 11.9708 7.30109 12.0498 7.5 12.0498ZM8.25 7.5498H15.75V10.5498H8.25V7.5498ZM18.75 3.0498H5.25C4.85218 3.0498 4.47064 3.20784 4.18934 3.48914C3.90804 3.77045 3.75 4.15198 3.75 4.5498V21.0498C3.75 21.4476 3.90804 21.8292 4.18934 22.1105C4.47064 22.3918 4.85218 22.5498 5.25 22.5498H18.75C19.1478 22.5498 19.5294 22.3918 19.8107 22.1105C20.092 21.8292 20.25 21.4476 20.25 21.0498V4.5498C20.25 4.15198 20.092 3.77045 19.8107 3.48914C19.5294 3.20784 19.1478 3.0498 18.75 3.0498ZM18.75 21.0498H5.25V4.5498H18.75V21.0498ZM9.375 14.6748C9.375 14.8973 9.30902 15.1148 9.1854 15.2998C9.06179 15.4848 8.88609 15.629 8.68052 15.7142C8.47495 15.7993 8.24875 15.8216 8.03052 15.7782C7.81229 15.7348 7.61184 15.6276 7.4545 15.4703C7.29717 15.313 7.19002 15.1125 7.14662 14.8943C7.10321 14.6761 7.12549 14.4499 7.21064 14.2443C7.29578 14.0387 7.43998 13.863 7.62498 13.7394C7.80999 13.6158 8.0275 13.5498 8.25 13.5498C8.54837 13.5498 8.83452 13.6683 9.0455 13.8793C9.25647 14.0903 9.375 14.3764 9.375 14.6748ZM13.125 14.6748C13.125 14.8973 13.059 15.1148 12.9354 15.2998C12.8118 15.4848 12.6361 15.629 12.4305 15.7142C12.225 15.7993 11.9988 15.8216 11.7805 15.7782C11.5623 15.7348 11.3618 15.6276 11.2045 15.4703C11.0472 15.313 10.94 15.1125 10.8966 14.8943C10.8532 14.6761 10.8755 14.4499 10.9606 14.2443C11.0458 14.0387 11.19 13.863 11.375 13.7394C11.56 13.6158 11.7775 13.5498 12 13.5498C12.2984 13.5498 12.5845 13.6683 12.7955 13.8793C13.0065 14.0903 13.125 14.3764 13.125 14.6748ZM16.875 14.6748C16.875 14.8973 16.809 15.1148 16.6854 15.2998C16.5618 15.4848 16.3861 15.629 16.1805 15.7142C15.975 15.7993 15.7488 15.8216 15.5305 15.7782C15.3123 15.7348 15.1118 15.6276 14.9545 15.4703C14.7972 15.313 14.69 15.1125 14.6466 14.8943C14.6032 14.6761 14.6255 14.4499 14.7106 14.2443C14.7958 14.0387 14.94 13.863 15.125 13.7394C15.31 13.6158 15.5275 13.5498 15.75 13.5498C16.0484 13.5498 16.3345 13.6683 16.5455 13.8793C16.7565 14.0903 16.875 14.3764 16.875 14.6748ZM9.375 18.4248C9.375 18.6473 9.30902 18.8648 9.1854 19.0498C9.06179 19.2348 8.88609 19.379 8.68052 19.4642C8.47495 19.5493 8.24875 19.5716 8.03052 19.5282C7.81229 19.4848 7.61184 19.3776 7.4545 19.2203C7.29717 19.063 7.19002 18.8625 7.14662 18.6443C7.10321 18.4261 7.12549 18.1999 7.21064 17.9943C7.29578 17.7887 7.43998 17.613 7.62498 17.4894C7.80999 17.3658 8.0275 17.2998 8.25 17.2998C8.54837 17.2998 8.83452 17.4183 9.0455 17.6293C9.25647 17.8403 9.375 18.1264 9.375 18.4248ZM13.125 18.4248C13.125 18.6473 13.059 18.8648 12.9354 19.0498C12.8118 19.2348 12.6361 19.379 12.4305 19.4642C12.225 19.5493 11.9988 19.5716 11.7805 19.5282C11.5623 19.4848 11.3618 19.3776 11.2045 19.2203C11.0472 19.063 10.94 18.8625 10.8966 18.6443C10.8532 18.4261 10.8755 18.1999 10.9606 17.9943C11.0458 17.7887 11.19 17.613 11.375 17.4894C11.56 17.3658 11.7775 17.2998 12 17.2998C12.2984 17.2998 12.5845 17.4183 12.7955 17.6293C13.0065 17.8403 13.125 18.1264 13.125 18.4248ZM16.875 18.4248C16.875 18.6473 16.809 18.8648 16.6854 19.0498C16.5618 19.2348 16.3861 19.379 16.1805 19.4642C15.975 19.5493 15.7488 19.5716 15.5305 19.5282C15.3123 19.4848 15.1118 19.3776 14.9545 19.2203C14.7972 19.063 14.69 18.8625 14.6466 18.6443C14.6032 18.4261 14.6255 18.1999 14.7106 17.9943C14.7958 17.7887 14.94 17.613 15.125 17.4894C15.31 17.3658 15.5275 17.2998 15.75 17.2998C16.0484 17.2998 16.3345 17.4183 16.5455 17.6293C16.7565 17.8403 16.875 18.1264 16.875 18.4248Z" fill="#666666"/>
</g>
</g>
</svg>
