<svg width="18" height="19" viewBox="0 0 18 19" fill="none" xmlns="http://www.w3.org/2000/svg">
<g id="SVG">
<g id="Group">
<path id="Vector" d="M15.0996 15.0763L10.698 8.15895L15.0412 3.38121C15.1395 3.27049 15.1901 3.12551 15.1821 2.9777C15.1742 2.8299 15.1083 2.69119 14.9988 2.59164C14.8892 2.49209 14.7449 2.43973 14.597 2.44591C14.4491 2.45209 14.3096 2.51631 14.2087 2.62465L10.0716 7.17527L7.2246 2.70129C7.17383 2.62138 7.10372 2.55558 7.02075 2.50998C6.93779 2.46438 6.84466 2.44046 6.74999 2.44043H3.37499C3.27413 2.44038 3.17512 2.46745 3.08832 2.5188C3.00151 2.57015 2.93011 2.6439 2.88159 2.73231C2.83307 2.82073 2.80921 2.92056 2.81252 3.02137C2.81582 3.12217 2.84617 3.22023 2.90038 3.30527L7.30194 10.2219L2.95874 15.0032C2.90802 15.0576 2.86862 15.1217 2.84282 15.1915C2.81702 15.2613 2.80534 15.3355 2.80844 15.4099C2.81155 15.4843 2.82939 15.5573 2.86092 15.6247C2.89246 15.6922 2.93706 15.7527 2.99214 15.8027C3.04723 15.8528 3.11171 15.8914 3.18183 15.9164C3.25196 15.9413 3.32634 15.9521 3.40067 15.9481C3.475 15.9441 3.5478 15.9254 3.61484 15.8931C3.68188 15.8607 3.74184 15.8154 3.79124 15.7597L7.92843 11.2091L10.7754 15.6831C10.8266 15.7623 10.8969 15.8275 10.9798 15.8724C11.0627 15.9174 11.1556 15.9408 11.25 15.9404H14.625C14.7257 15.9404 14.8246 15.9133 14.9113 15.862C14.998 15.8107 15.0693 15.737 15.1178 15.6487C15.1663 15.5604 15.1902 15.4607 15.187 15.36C15.1838 15.2593 15.1536 15.1613 15.0996 15.0763ZM11.5587 14.8154L4.39944 3.56543H6.4385L13.6005 14.8154H11.5587Z" fill="white"/>
</g>
</g>
</svg>
