<svg width="23" height="25" viewBox="0 0 23 25" fill="none" xmlns="http://www.w3.org/2000/svg">
<g id="svg11119586379" clip-path="url(#clip0_1_1108)">
<path id="Vector" d="M15.2 7.59747L4.45001 1.36347C4.03201 1.11247 3.553 0.980469 3.065 0.980469C2.018 0.980469 1.098 1.61447 0.657005 2.50047L0.737005 2.58047L10.478 12.3205L15.201 7.59747H15.2ZM0.384005 3.54647L0.380005 3.66447V22.2965C0.380005 22.3355 0.380005 22.3755 0.383005 22.4145L9.81901 12.9805L0.383005 3.54547L0.384005 3.54647ZM0.658005 23.4595C1.098 24.3465 2.018 24.9805 3.064 24.9805C3.56 24.9805 4.025 24.8465 4.426 24.6105L4.45701 24.5905L15.22 18.3805L10.48 13.6405L0.740005 23.3795L0.658005 23.4595ZM16.058 17.8965L20.44 15.3685C21.309 14.9025 21.852 13.9985 21.855 13.0125C21.859 12.0265 21.322 11.1185 20.456 10.6465L20.446 10.6405L16.038 8.08347L11.138 12.9795L16.058 17.8965Z" fill="white"/>
</g>
<defs>
<clipPath id="clip0_1_1108">
<rect width="22" height="24" fill="white" transform="translate(0.380005 0.980469)"/>
</clipPath>
</defs>
</svg>
