<svg width="50" height="21" viewBox="0 0 50 21" fill="none" xmlns="http://www.w3.org/2000/svg">
<g id="svg11728091766" clip-path="url(#clip0_1_72)">
<path id="Vector" d="M-34.685 4.73595C-34.685 2.36895 -32.77 0.449951 -30.408 0.449951H-19.002C-16.64 0.449951 -14.725 2.36895 -14.725 4.73595V16.164C-14.725 18.531 -16.64 20.45 -19.002 20.45H-30.408C-32.77 20.45 -34.685 18.531 -34.685 16.164V4.73595ZM-29.933 3.78295C-30.721 3.78295 -31.36 4.42295 -31.36 5.21195V10.688C-31.36 11.477 -30.721 12.117 -29.933 12.117H-24.705V15.688C-24.705 16.477 -24.067 17.117 -23.28 17.117H-19.477C-18.69 17.117 -18.051 16.477 -18.051 15.688V11.878C-18.051 11.089 -18.69 10.45 -19.477 10.45H-23.042V5.21195C-23.042 4.42295 -23.681 3.78295 -24.467 3.78295H-29.933ZM-10.186 17.408C-9.846 17.621 -9.387 17.727 -8.808 17.727C-8.284 17.727 -7.886 17.596 -7.613 17.333C-7.335 17.071 -7.112 16.714 -6.945 16.262V17.592H-3.904V2.86095H-6.945V6.37695C-7.02 6.17995 -7.116 5.99095 -7.231 5.81395C-7.36 5.61695 -7.52 5.44195 -7.705 5.29695C-7.889 5.15195 -8.101 5.04795 -8.329 4.99195C-8.421 4.96795 -8.515 4.94895 -8.61 4.93595C-8.772 4.91295 -8.936 4.90195 -9.1 4.90295C-9.919 4.90295 -10.501 5.20195 -10.846 5.79895C-11.185 6.39595 -11.356 7.17795 -11.356 8.14195V13.601C-11.356 14.175 -11.331 14.713 -11.281 15.216C-11.224 15.718 -11.113 16.156 -10.947 16.53C-10.78 16.903 -10.526 17.197 -10.186 17.408ZM-7.095 15.04C-7.19 15.268 -7.379 15.383 -7.663 15.383C-8.142 15.383 -8.382 14.858 -8.382 13.809V8.52795C-8.382 8.20395 -8.34 7.90495 -8.257 7.63195C-8.173 7.35795 -7.969 7.22195 -7.647 7.22195C-7.351 7.22195 -7.162 7.36695 -7.079 7.65695C-6.99 7.94195 -6.945 8.23195 -6.945 8.52795V13.809C-6.945 14.401 -6.995 14.811 -7.095 15.04ZM-2.06599 17.242C-2.014 17.287 -1.96 17.329 -1.901 17.368C-1.794 17.44 -1.67699 17.5009 -1.549 17.552C-1.249 17.6679 -0.888996 17.727 -0.469997 17.727C-0.0509987 17.73 0.356003 17.582 0.674004 17.308C1.008 17.029 1.248 16.628 1.39301 16.103V17.593H4.366V8.02595C4.367 7.89095 4.36 7.75495 4.347 7.62095L4.339 7.54195C4.306 7.26795 4.237 6.99995 4.133 6.74395C3.846 6.07695 3.314 5.54695 2.646 5.26295C2.364 5.13695 2.068 5.04395 1.765 4.98595C1.46301 4.92895 1.157 4.90095 0.850002 4.90195C-0.425999 4.90195 -1.359 5.16495 -1.949 5.68995C-2.533 6.20895 -2.826 7.09295 -2.826 8.34295V8.58595C-2.826 8.65195 -2.824 8.70895 -2.818 8.75295H0.0890045V7.99995C0.0890045 7.72295 0.141003 7.51495 0.244003 7.37795C0.299004 7.30595 0.373005 7.24995 0.458004 7.21795C0.533005 7.19195 0.612007 7.17895 0.691006 7.17995C1.131 7.17995 1.35101 7.51695 1.35101 8.19195V9.48195L-0.503998 10.118C-1.144 10.335 -1.64799 10.601 -2.016 10.913C-2.383 11.233 -2.649 11.651 -2.785 12.118C-2.934 12.604 -3.01 13.229 -3.01 13.993C-3.01 14.708 -2.943 15.347 -2.81 15.91C-2.726 16.265 -2.596 16.572 -2.422 16.832C-2.319 16.984 -2.20099 17.122 -2.06599 17.242ZM1.061 15.292L1.042 15.306L1.014 15.324C0.931004 15.374 0.828003 15.399 0.708004 15.399C0.417004 15.399 0.219002 15.241 0.119003 14.923C0.0970039 14.851 0.0800056 14.778 0.0690041 14.704C0.0480042 14.566 0.0380058 14.426 0.0390053 14.287V12.671C0.0390053 12.47 0.0580063 12.289 0.0960045 12.128C0.152004 11.896 0.246002 11.706 0.382004 11.557C0.610004 11.301 0.931004 11.089 1.342 10.922V14.421C1.342 14.66 1.298 14.883 1.209 15.09C1.181 15.156 1.14 15.217 1.089 15.268L1.061 15.292Z" fill="#666666"/>
<path id="Vector_2" d="M8.092 17.727C7.285 17.727 6.739 17.557 6.455 17.216C6.177 16.87 6.037 16.342 6.037 15.634V7.80796H5.194V5.52196H6.037V2.86096H8.945V5.52196H9.788V7.80796H8.945V14.931C8.945 15.038 8.953 15.128 8.972 15.203C8.989 15.272 9.013 15.326 9.044 15.367C9.111 15.45 9.24 15.492 9.429 15.492C9.563 15.492 9.682 15.481 9.788 15.458V17.5C9.581 17.552 9.372 17.594 9.162 17.627C8.811 17.693 8.455 17.727 8.092 17.727Z" fill="#666666"/>
<path id="Vector_3" d="M11.434 17.242C11.801 17.565 12.334 17.727 13.03 17.727C13.449 17.73 13.856 17.582 14.174 17.308C14.509 17.029 14.748 16.628 14.893 16.103V17.592H17.867V8.02601C17.867 7.88201 17.859 7.74401 17.845 7.61101C17.832 7.48001 17.811 7.35001 17.783 7.22101C17.713 6.89501 17.583 6.58601 17.399 6.30901C17.092 5.84601 16.656 5.48201 16.145 5.26301C15.774 5.09701 15.38 4.98801 14.976 4.94101C14.768 4.91501 14.559 4.90201 14.35 4.90301C13.074 4.90301 12.142 5.16501 11.551 5.69001C10.966 6.20901 10.674 7.09301 10.674 8.34301V8.64201L10.676 8.69201C10.677 8.71201 10.679 8.73301 10.682 8.75301H13.59V8.00001C13.59 7.45301 13.789 7.18001 14.191 7.18001C14.45 7.18001 14.633 7.29801 14.74 7.53301C14.814 7.69701 14.85 7.91701 14.85 8.19201V9.48201L12.996 10.118C12.355 10.335 11.851 10.601 11.484 10.913C11.117 11.233 10.851 11.651 10.715 12.118C10.566 12.604 10.491 13.229 10.491 13.993C10.491 14.708 10.557 15.347 10.69 15.91C10.823 16.474 11.072 16.918 11.434 17.242ZM14.709 15.09C14.619 15.297 14.453 15.4 14.208 15.4C13.92 15.4 13.725 15.245 13.623 14.936C13.608 14.891 13.596 14.845 13.586 14.798L13.567 14.699C13.547 14.563 13.538 14.425 13.539 14.287V12.671C13.539 12.365 13.584 12.105 13.672 11.893C13.686 11.86 13.701 11.829 13.717 11.798L13.745 11.746C13.784 11.678 13.829 11.615 13.882 11.557C14.11 11.301 14.43 11.089 14.842 10.922V14.421C14.842 14.66 14.798 14.883 14.709 15.09Z" fill="#666666"/>
<path id="Vector_4" d="M21.592 17.727C20.785 17.727 20.239 17.557 19.955 17.216C19.677 16.87 19.537 16.342 19.537 15.634V7.80796H18.694V5.52196H19.537V2.86096H22.445V5.52196H23.288V7.80796H22.445V14.931C22.445 15.138 22.478 15.283 22.544 15.367C22.611 15.45 22.74 15.492 22.929 15.492C23.062 15.492 23.182 15.481 23.288 15.458V17.5C23.258 17.51 23.227 17.518 23.196 17.525C23.148 17.536 23.084 17.548 23.005 17.564L22.662 17.627C22.311 17.693 21.955 17.727 21.592 17.727Z" fill="#666666"/>
<path id="Vector_5" d="M25.627 17.225C26.156 17.559 26.867 17.727 27.757 17.727C28.705 17.727 29.451 17.568 29.996 17.25C30.271 17.089 30.504 16.891 30.698 16.655C30.901 16.405 31.059 16.122 31.166 15.818C31.399 15.182 31.517 14.395 31.517 13.457V12.747H28.543V13.952C28.543 14.019 28.542 14.085 28.539 14.148L28.531 14.333C28.526 14.425 28.517 14.511 28.508 14.593C28.492 14.735 28.464 14.877 28.425 15.015C28.348 15.283 28.153 15.417 27.841 15.417C27.624 15.417 27.465 15.347 27.365 15.208C27.327 15.151 27.295 15.091 27.27 15.028C27.225 14.917 27.195 14.8 27.181 14.68C27.153 14.461 27.139 14.24 27.139 14.018V11.592H31.483C31.506 11.212 31.517 10.47 31.517 9.36598V8.45198C31.517 6.08498 30.314 4.90198 27.908 4.90198C26.739 4.90198 25.82 5.20298 25.151 5.80698C24.483 6.40298 24.149 7.28498 24.149 8.45198V13.499C24.149 14.386 24.263 15.145 24.491 15.776C24.593 16.056 24.724 16.307 24.885 16.528C25.035 16.738 25.216 16.924 25.421 17.08C25.488 17.13 25.557 17.178 25.627 17.223V17.225ZM28.543 10.102H27.123V8.40998C27.123 7.94198 27.187 7.61198 27.315 7.42198C27.367 7.34598 27.435 7.28198 27.513 7.23198C27.622 7.16798 27.748 7.13498 27.875 7.13798C28.097 7.13798 28.265 7.23798 28.376 7.43898C28.488 7.63498 28.542 7.95798 28.542 8.40998L28.543 10.102Z" fill="#666666"/>
<path id="Vector_6" d="M36.37 17.727C34.967 17.727 33.97 17.367 33.38 16.647C32.795 15.928 32.503 14.87 32.503 13.475V9.60796C32.503 8.55696 32.614 7.68496 32.836 6.98696C33.059 6.28996 33.449 5.76796 34.007 5.42296C34.564 5.07596 35.337 4.90296 36.329 4.90296C37.019 4.90296 37.638 5.02596 38.183 5.27196C38.443 5.38796 38.677 5.52796 38.885 5.69496C39.118 5.88096 39.321 6.10196 39.487 6.35096C39.804 6.82596 39.963 7.40596 39.963 8.09296V10.009H36.913V8.25096C36.913 7.96096 36.872 7.71796 36.789 7.52296C36.705 7.32296 36.524 7.22196 36.245 7.22196C35.755 7.22196 35.51 7.57096 35.51 8.26796V14.353C35.51 14.61 35.566 14.848 35.677 15.065C35.728 15.167 35.808 15.252 35.908 15.308C35.998 15.358 36.105 15.383 36.229 15.383C36.49 15.383 36.671 15.28 36.772 15.073C36.853 14.902 36.904 14.718 36.922 14.529C36.927 14.467 36.93 14.403 36.93 14.338V12.228H39.963V14.421C39.963 15.113 39.807 15.707 39.495 16.203C39.189 16.694 38.748 17.087 38.225 17.333C37.684 17.596 37.066 17.727 36.37 17.727ZM41.007 2.86096V17.592H44.082V8.09196C44.082 7.97296 44.095 7.86196 44.122 7.75796C44.151 7.64796 44.196 7.54696 44.257 7.45496C44.324 7.35096 44.422 7.27096 44.537 7.22496C44.707 7.16796 44.892 7.17596 45.057 7.24796C45.151 7.29096 45.229 7.35996 45.284 7.44696C45.338 7.52696 45.381 7.61796 45.409 7.71896C45.442 7.83796 45.46 7.96896 45.46 8.11696V17.592H48.484V7.92496C48.484 7.00396 48.286 6.26996 47.891 5.72296C47.495 5.17696 46.863 4.90296 45.994 4.90296C45.549 4.90296 45.159 5.01796 44.825 5.24696C44.491 5.46896 44.243 5.81596 44.082 6.28396V2.86096H41.007Z" fill="#666666"/>
</g>
<defs>
<clipPath id="clip0_1_72">
<rect width="84" height="20" fill="white" transform="translate(-34.91 0.449951)"/>
</clipPath>
</defs>
</svg>
