<svg width="64" height="21" viewBox="0 0 64 21" fill="none" xmlns="http://www.w3.org/2000/svg">
<g id="svg11946463435" clip-path="url(#clip0_1_83)">
<path id="Vector" d="M0.34296 14.083V16.603C-0.294041 16.737 -0.919037 16.837 -1.53004 16.903C-2.14104 16.9699 -2.86604 17.003 -3.70304 17.003C-4.77904 17.003 -5.68904 16.91 -6.43404 16.723C-7.16404 16.537 -7.75604 16.21 -8.20704 15.743C-8.64604 15.263 -8.96504 14.59 -9.16404 13.723C-9.36404 12.857 -9.46304 11.743 -9.46304 10.383C-9.46304 9.07695 -9.36404 8.00295 -9.16404 7.16295C-8.96504 6.32295 -8.64604 5.67695 -8.20704 5.22295C-7.75604 4.75695 -7.16404 4.43695 -6.43404 4.26295C-5.68904 4.07695 -4.77904 3.98295 -3.70304 3.98295C-2.86604 3.98295 -2.14104 4.01695 -1.53004 4.08295C-0.919037 4.13695 -0.294041 4.23695 0.34296 4.38295V6.98295L0.283962 7.02295C-0.248039 6.89495 -0.787041 6.80095 -1.33104 6.74295C-1.84904 6.67695 -2.48704 6.64295 -3.24404 6.64295C-3.85604 6.64295 -4.36104 6.68995 -4.75904 6.78295C-5.14504 6.86295 -5.45004 7.02995 -5.67604 7.28295C-5.90204 7.53695 -6.06104 7.90995 -6.15404 8.40295C-6.23404 8.89695 -6.27404 9.55695 -6.27404 10.383C-6.27404 11.25 -6.23404 11.95 -6.15404 12.483C-6.06104 13.003 -5.90204 13.397 -5.67604 13.663C-5.45004 13.93 -5.14504 14.11 -4.75904 14.203C-4.36104 14.297 -3.85604 14.343 -3.24404 14.343C-2.50004 14.343 -1.86904 14.323 -1.35104 14.283C-0.813042 14.229 -0.280037 14.135 0.243961 14.003L0.34296 14.083ZM1.33296 12.023C1.33296 10.237 1.71096 8.94995 2.46896 8.16295C3.22596 7.37695 4.50797 6.98295 6.31596 6.98295C7.52496 6.98295 8.49496 7.15695 9.22596 7.50295C9.93797 7.83095 10.501 8.41695 10.8 9.14295C11.133 9.87695 11.299 10.837 11.299 12.023C11.299 13.197 11.133 14.15 10.8 14.883C10.496 15.602 9.93396 16.18 9.22596 16.503C8.49496 16.837 7.52496 17.003 6.31596 17.003C4.50797 17.003 3.22596 16.617 2.46896 15.843C1.71096 15.057 1.33296 13.783 1.33296 12.023ZM6.31596 14.263C7.08596 14.263 7.60496 14.097 7.86996 13.763C8.14896 13.417 8.28896 12.817 8.28896 11.963C8.28896 11.15 8.14896 10.57 7.86996 10.223C7.60496 9.86295 7.08596 9.68295 6.31596 9.68295C5.57096 9.68295 5.05296 9.86295 4.76096 10.223C4.48196 10.57 4.34196 11.15 4.34196 11.963C4.34196 12.817 4.48196 13.417 4.76096 13.763C5.05296 14.097 5.57096 14.263 6.31596 14.263ZM16.178 16.823H12.989V7.08295H16.018L16.178 8.86295H16.238C16.424 8.26295 16.756 7.80295 17.234 7.48295C17.713 7.14995 18.377 6.98295 19.228 6.98295C20.384 6.98295 21.234 7.30995 21.779 7.96295C22.337 8.61695 22.616 9.74995 22.616 11.363V16.823H19.427L19.407 11.983C19.407 11.237 19.294 10.703 19.068 10.383C18.842 10.063 18.417 9.90295 17.792 9.90295C17.208 9.90295 16.796 10.05 16.557 10.343C16.317 10.623 16.191 11.11 16.178 11.803V16.823ZM27.993 16.823H24.804V7.08295H27.834L27.994 8.86295H28.053C28.239 8.26295 28.572 7.80295 29.05 7.48295C29.528 7.14995 30.193 6.98295 31.043 6.98295C32.199 6.98295 33.05 7.30995 33.594 7.96295C34.153 8.61695 34.432 9.74995 34.432 11.363V16.823H31.242L31.223 11.983C31.223 11.237 31.11 10.703 30.884 10.383C30.658 10.063 30.233 9.90295 29.608 9.90295C29.023 9.90295 28.611 10.05 28.372 10.343C28.133 10.623 28.007 11.11 27.994 11.803L27.993 16.823ZM45.171 16.503C44.798 16.637 44.28 16.757 43.615 16.863C42.964 16.957 42.187 17.003 41.283 17.003C40.141 17.003 39.165 16.857 38.354 16.563C37.557 16.257 36.952 15.743 36.54 15.023C36.128 14.29 35.922 13.277 35.922 11.983C35.922 10.223 36.32 8.94995 37.118 8.16295C37.929 7.37695 39.177 6.98295 40.866 6.98295C42.075 6.98295 43.025 7.15695 43.715 7.50295C44.419 7.84995 44.918 8.34295 45.21 8.98295C45.516 9.60995 45.668 10.357 45.668 11.223C45.668 11.477 45.655 11.75 45.629 12.043C45.617 12.332 45.583 12.619 45.53 12.903L45.45 12.983H38.891C38.984 13.57 39.257 13.957 39.709 14.143C40.174 14.33 40.925 14.423 41.962 14.423C42.652 14.423 43.224 14.41 43.676 14.383C44.149 14.342 44.621 14.289 45.091 14.223L45.171 14.283V16.503ZM42.898 10.883C42.898 10.563 42.846 10.29 42.739 10.063C42.646 9.82295 42.454 9.64295 42.16 9.52295C41.868 9.38995 41.436 9.32295 40.865 9.32295C40.028 9.32295 39.476 9.46995 39.21 9.76295C38.959 10.043 38.832 10.417 38.832 10.883H42.898ZM54.919 14.003V16.603C54.586 16.737 54.095 16.837 53.444 16.903C52.793 16.9699 52.102 17.003 51.371 17.003C50.321 17.003 49.444 16.857 48.74 16.563C48.049 16.27 47.53 15.763 47.185 15.043C46.853 14.323 46.68 13.323 46.667 12.043C46.667 10.723 46.846 9.69695 47.205 8.96295C47.577 8.22995 48.115 7.71695 48.819 7.42295C49.524 7.12995 50.367 6.98295 51.351 6.98295C51.935 6.98295 52.553 7.02295 53.204 7.10295C53.856 7.18295 54.387 7.28995 54.799 7.42295L54.819 10.103L54.759 10.143C54.361 10.063 53.935 10.003 53.484 9.96295C53.039 9.92395 52.594 9.90395 52.148 9.90295C51.258 9.90295 50.64 10.07 50.294 10.403C49.949 10.737 49.776 11.297 49.776 12.083C49.776 12.683 49.849 13.13 49.995 13.423C50.142 13.717 50.387 13.91 50.733 14.003C51.078 14.097 51.55 14.143 52.148 14.143C52.613 14.143 53.058 14.123 53.484 14.083C53.936 14.041 54.388 13.994 54.839 13.943L54.919 14.003ZM56.907 13.903V9.70295H55.711V7.10295H57.206L57.804 4.72295H60.096V7.10295H62.269V9.70295H60.096V13.203C60.096 13.577 60.143 13.837 60.236 13.983C60.329 14.117 60.541 14.183 60.873 14.183C61.086 14.183 61.312 14.177 61.551 14.163L62.269 14.083L62.328 14.123V16.723C61.691 16.91 60.847 17.003 59.797 17.003C58.747 17.003 58.003 16.763 57.565 16.283C57.126 15.803 56.907 15.01 56.907 13.903ZM-21.142 10.45L-7.85404 0.449951H-17.82L-21.142 9.19995L-24.464 0.449951H-34.43L-21.142 10.45ZM-21.142 10.45L-34.43 20.45H-24.464L-21.142 11.7L-17.82 20.45H-7.85404L-21.142 10.45Z" fill="#666666"/>
</g>
<defs>
<clipPath id="clip0_1_83">
<rect width="98" height="20" fill="white" transform="translate(-34.91 0.449951)"/>
</clipPath>
</defs>
</svg>
