<svg width="44" height="21" viewBox="0 0 44 21" fill="none" xmlns="http://www.w3.org/2000/svg">
<g id="svg9300192287" clip-path="url(#clip0_1_90)">
<path id="Vector" d="M-25.785 1.90595C-25.724 1.54295 -25.827 1.17195 -26.066 0.891951C-26.305 0.611951 -26.656 0.449951 -27.026 0.449951H-27.412C-27.782 0.449951 -28.133 0.611951 -28.372 0.891951C-28.611 1.17195 -28.714 1.54295 -28.653 1.90595L-27.218 10.45L-32.287 3.40095C-32.502 3.10195 -32.839 2.91295 -33.207 2.88295C-33.575 2.85195 -33.938 2.98495 -34.2 3.24395L-34.472 3.51395C-34.734 3.77395 -34.867 4.13495 -34.836 4.50095C-34.806 4.86695 -34.615 5.20095 -34.314 5.41495L-27.218 10.45L-34.314 15.485C-34.614 15.699 -34.805 16.033 -34.836 16.399C-34.866 16.765 -34.733 17.126 -34.471 17.386L-34.2 17.657C-33.939 17.917 -33.575 18.049 -33.207 18.018C-32.838 17.988 -32.501 17.798 -32.287 17.498L-27.218 10.45L-28.652 18.994C-28.713 19.357 -28.611 19.728 -28.371 20.008C-28.132 20.288 -27.781 20.45 -27.411 20.45H-27.026C-26.656 20.45 -26.305 20.288 -26.066 20.008C-25.827 19.728 -25.724 19.357 -25.785 18.994L-27.218 10.45L-22.152 17.499C-21.937 17.798 -21.6 17.987 -21.232 18.018C-20.864 18.048 -20.501 17.916 -20.239 17.657L-19.967 17.386C-19.705 17.126 -19.572 16.765 -19.603 16.399C-19.633 16.033 -19.824 15.699 -20.125 15.485L-27.218 10.45L-20.125 5.41495C-19.824 5.20195 -19.633 4.86695 -19.602 4.50095C-19.572 4.13495 -19.705 3.77395 -19.966 3.51395L-20.238 3.24395C-20.5 2.98395 -20.863 2.85095 -21.232 2.88195C-21.601 2.91195 -21.937 3.10195 -22.152 3.40095L-27.218 10.45L-25.786 1.90595H-25.785ZM18.118 13.35V7.93895H20.045C20.102 7.84895 20.151 7.75395 20.189 7.65395C20.241 7.52195 20.278 7.38095 20.301 7.22895C20.317 7.10495 20.33 6.98095 20.339 6.85695C20.353 6.66595 20.359 6.45695 20.359 6.23195H18.079V4.21695C18.079 3.89695 17.961 3.60795 17.725 3.35295C17.702 3.32495 17.677 3.29795 17.65 3.27195L17.613 3.23695L17.581 3.21095C17.49 3.13995 17.388 3.08295 17.279 3.04395C17.087 2.97795 16.886 2.94595 16.683 2.94995C16.487 2.94995 16.271 2.96895 16.035 3.00795C15.963 3.59495 15.81 4.16895 15.582 4.71495C15.36 5.27795 15.085 5.75195 14.757 6.13495C14.442 6.50695 14.115 6.71695 13.774 6.76795V7.93895H15.013V13.216C15.013 14.406 15.288 15.256 15.838 15.768C16.401 16.28 17.142 16.535 18.06 16.535C18.273 16.535 18.476 16.523 18.668 16.5C18.923 16.469 19.173 16.412 19.415 16.329L19.476 16.306C19.569 16.271 19.66 16.231 19.748 16.186C19.8 16.16 19.851 16.133 19.901 16.104L19.958 16.071L20.044 16.015C20.237 15.887 20.395 15.74 20.516 15.576C20.611 15.449 20.684 15.321 20.736 15.191C20.799 15.033 20.831 14.874 20.831 14.713C20.831 14.546 20.798 14.361 20.733 14.156C20.681 13.952 20.588 13.798 20.457 13.696C20.397 13.771 20.328 13.839 20.253 13.9L20.201 13.942C20.08 14.034 19.948 14.112 19.809 14.175C19.628 14.262 19.434 14.322 19.235 14.353L19.187 14.358C19.132 14.364 19.077 14.367 19.022 14.367C18.735 14.367 18.511 14.297 18.354 14.156C18.197 14.003 18.118 13.734 18.118 13.35ZM11.962 5.98195C12.552 5.98195 12.984 6.12895 13.26 6.42295C13.535 6.71695 13.672 7.11995 13.672 7.63195C13.672 8.18195 13.521 8.62995 13.219 8.97495C12.932 9.32095 12.539 9.49295 12.041 9.49295C11.608 9.49295 11.254 9.37195 10.979 9.12795C10.818 8.98295 10.698 8.79795 10.632 8.59295C10.601 8.48595 10.585 8.37595 10.586 8.26495C10.586 8.18095 10.589 8.10395 10.596 8.03495C10.601 7.98195 10.608 7.93495 10.617 7.89195C10.625 7.85195 10.634 7.81695 10.645 7.78595C10.434 7.83695 10.23 7.90895 10.034 7.99995C9.82196 8.09995 9.62397 8.22795 9.44596 8.37995V14.137C9.44596 14.457 9.49197 14.7 9.58397 14.866C9.67496 15.032 9.85196 15.16 10.114 15.249C10.39 15.327 10.795 15.365 11.333 15.365L11.331 15.44C11.329 15.553 11.318 15.665 11.3 15.777L11.29 15.827L11.279 15.874L11.273 15.895L11.254 15.96C11.192 16.128 11.091 16.28 10.959 16.402H5.71096C5.40897 16.107 5.25797 15.762 5.25797 15.365C5.63897 15.365 5.90696 15.288 6.06496 15.135C6.23496 14.968 6.31997 14.693 6.31997 14.31V8.76395C6.31997 8.41795 6.22197 8.17595 6.02597 8.03495C5.97997 8.00095 5.93097 7.97195 5.87796 7.94995C5.79696 7.91795 5.71396 7.89295 5.62796 7.87495C5.42896 7.83795 5.22596 7.82095 5.02296 7.82395V7.40695C4.85497 7.43495 4.69697 7.50595 4.56597 7.61195C4.38097 7.76695 4.23096 8.02195 4.11296 8.37995L1.87197 15.193C1.28297 17.06 0.653965 18.403 -0.0150337 19.222C-0.683033 20.041 -1.52203 20.45 -2.53103 20.45C-3.31703 20.45 -3.92003 20.29 -4.34003 19.97C-4.75803 19.651 -4.96903 19.247 -4.96903 18.762C-4.96903 18.454 -4.89603 18.179 -4.75303 17.937C-4.64503 17.762 -4.49903 17.614 -4.32603 17.504C-4.27403 17.472 -4.21903 17.443 -4.16303 17.418C-3.80903 17.828 -3.28403 18.033 -2.59003 18.033C-2.17104 18.033 -1.75703 17.834 -1.35204 17.438C-0.945034 17.041 -0.611034 16.458 -0.349033 15.691H-1.96103L-4.98803 8.51495C-5.04803 8.35295 -5.11403 8.19295 -5.18403 8.03495C-5.28903 7.79195 -5.42103 7.62595 -5.57903 7.53595C-5.61603 7.51195 -5.65503 7.48995 -5.69603 7.47295C-5.76303 7.50395 -5.82403 7.54495 -5.87903 7.59295C-6.04903 7.74795 -6.19303 8.00295 -6.31203 8.36095L-8.35603 14.483C-8.57903 15.237 -8.82803 15.768 -9.10203 16.075C-9.37803 16.382 -9.79803 16.536 -10.36 16.536H-12.405L-15.511 8.36095C-15.655 7.98995 -15.799 7.73395 -15.943 7.59395C-16.088 7.43995 -16.323 7.36295 -16.651 7.36295C-16.651 6.86395 -16.514 6.47995 -16.239 6.21195H-11.757C-11.612 6.35295 -11.501 6.53195 -11.422 6.74895C-11.344 6.95395 -11.305 7.15795 -11.305 7.36295C-11.58 7.36295 -11.803 7.43995 -11.973 7.59295C-12.143 7.73495 -12.228 7.94595 -12.228 8.22695C-12.228 8.27295 -12.221 8.33095 -12.207 8.39995L-12.189 8.48595L-12.15 8.62995L-11.344 11.239L-10.439 14.598L-9.53503 11.239L-8.76803 8.62995C-8.71603 8.42495 -8.69003 8.27195 -8.69003 8.16895C-8.69003 8.06895 -8.70303 7.97795 -8.72903 7.89795C-8.76903 7.76595 -8.85203 7.65195 -8.96503 7.57395C-9.13603 7.43295 -9.38503 7.36295 -9.71203 7.36295C-9.71203 6.83795 -9.58803 6.45495 -9.33903 6.21195H-1.13604C-0.821037 6.54495 -0.664036 6.93495 -0.664036 7.38295C-1.26604 7.38295 -1.56804 7.67695 -1.56804 8.26595C-1.56804 8.49595 -1.53403 8.70695 -1.47004 8.89895L0.358967 14.099L1.65597 8.64895C1.69497 8.46995 1.71497 8.31595 1.71497 8.18795C1.71497 7.65095 1.39396 7.38295 0.751965 7.38295C0.751965 6.85695 0.875965 6.46795 1.12497 6.21195H4.91896C5.05497 6.35195 5.15596 6.52395 5.22197 6.72995L5.23697 6.77695L5.25296 6.84095C5.65096 6.64695 6.14497 6.47595 6.73297 6.32795C7.45397 6.13595 8.01096 6.03895 8.40396 6.03895C8.71896 6.03895 8.94096 6.14695 9.07196 6.36595C9.20396 6.58295 9.26897 7.01795 9.26897 7.66995C9.50497 7.23595 9.87796 6.84495 10.39 6.49995C10.901 6.15395 11.425 5.98195 11.962 5.98195ZM31.06 14.321L31.069 14.39L31.078 14.442C31.112 14.625 31.182 14.786 31.288 14.923C31.379 15.034 31.496 15.122 31.628 15.18C31.737 15.228 31.86 15.258 31.996 15.269V15.807C31.786 16.037 31.459 16.215 31.013 16.343C30.585 16.471 30.142 16.535 29.696 16.535C29.25 16.535 28.871 16.421 28.555 16.19C28.241 15.96 28.031 15.64 27.926 15.231C27.297 16.101 26.4 16.536 25.234 16.536C24.316 16.536 23.602 16.261 23.091 15.711C22.579 15.161 22.324 14.418 22.324 13.484V8.20795C22.324 7.99195 22.239 7.83795 22.069 7.74795C21.912 7.65795 21.675 7.61295 21.361 7.61295V6.76795C21.558 6.61495 21.931 6.46195 22.482 6.30795C23.065 6.15195 23.666 6.07395 24.27 6.07795L24.419 6.07895C24.5 6.08095 24.575 6.08395 24.645 6.08795C24.826 6.10095 24.971 6.12295 25.076 6.15495C25.231 6.18195 25.363 6.28195 25.43 6.42295C25.496 6.56395 25.528 6.78795 25.528 7.09495V13.542C25.528 13.633 25.532 13.718 25.538 13.798C25.546 13.887 25.558 13.969 25.574 14.047C25.607 14.205 25.657 14.337 25.725 14.444C25.869 14.636 26.099 14.732 26.413 14.732C26.541 14.732 26.666 14.713 26.791 14.677C26.922 14.638 27.051 14.58 27.18 14.502C27.367 14.383 27.54 14.243 27.694 14.083L27.738 14.035L27.784 13.983L27.848 13.908V8.20795C27.848 7.81095 27.481 7.61295 26.747 7.61295V6.76795C26.957 6.60195 27.337 6.44795 27.888 6.30795C28.189 6.22695 28.497 6.16695 28.808 6.13095C29.115 6.09495 29.425 6.07695 29.735 6.07795C30.272 6.07795 30.626 6.14195 30.797 6.26895C30.966 6.38495 31.052 6.65995 31.052 7.09395V14.156L31.054 14.237L31.057 14.279L31.06 14.321Z" fill="#666666"/>
<path id="Vector_2" d="M33.534 11.662C32.957 12.161 32.669 12.838 32.669 13.695C32.669 14.528 32.971 15.212 33.573 15.748C34.19 16.273 34.989 16.536 35.972 16.536C36.426 16.536 36.842 16.478 37.216 16.365C37.294 16.341 37.371 16.315 37.445 16.286C37.586 16.228 37.723 16.164 37.858 16.094L37.957 16.04C38.167 15.924 38.364 15.788 38.547 15.634C38.913 16.234 39.542 16.536 40.434 16.536C40.84 16.536 41.239 16.472 41.633 16.344C41.887 16.261 42.096 16.156 42.257 16.03C42.344 15.962 42.418 15.888 42.478 15.807V15.193C41.876 15.064 41.574 14.693 41.574 14.079V8.99399C41.574 7.99699 41.24 7.24199 40.571 6.72999C39.903 6.20499 38.92 5.94299 37.622 5.94299C36.666 5.94299 35.86 6.06499 35.204 6.30799C34.563 6.55099 34.085 6.87099 33.77 7.26699C33.455 7.66399 33.298 8.08599 33.298 8.53299C33.298 8.98199 33.449 9.34599 33.75 9.62799C34.052 9.90899 34.451 10.05 34.949 10.05C35.408 10.05 35.788 9.92199 36.09 9.66699C36.231 9.54599 36.339 9.40799 36.414 9.25399C36.501 9.07099 36.544 8.87099 36.541 8.66799C36.541 8.52299 36.515 8.38699 36.463 8.26199C36.431 8.18799 36.392 8.11899 36.345 8.05399C36.228 7.86299 36.043 7.72799 35.795 7.65099C35.943 7.54099 36.114 7.46099 36.307 7.40899C36.486 7.36399 36.671 7.34199 36.856 7.34399C37.301 7.34399 37.655 7.45899 37.918 7.68999C38.018 7.77299 38.099 7.87699 38.161 8.00299C38.194 8.07199 38.221 8.14399 38.241 8.21799C38.259 8.27899 38.273 8.34499 38.284 8.41299C38.302 8.52699 38.311 8.64999 38.311 8.78299V11.336C38.221 11.292 38.129 11.253 38.034 11.22L37.917 11.181C37.809 11.147 37.7 11.117 37.59 11.091C37.49 11.067 37.389 11.047 37.288 11.028C36.893 10.953 36.492 10.914 36.089 10.913C34.962 10.913 34.111 11.163 33.534 11.662ZM37.78 12.583C37.99 12.647 38.166 12.724 38.311 12.813V14.674C38.24 14.722 38.165 14.764 38.087 14.8C38 14.84 37.91 14.875 37.819 14.904C37.633 14.956 37.441 14.982 37.248 14.982C36.856 14.982 36.541 14.872 36.306 14.655C36.16 14.516 36.054 14.341 35.999 14.147C35.967 14.032 35.951 13.912 35.952 13.792C35.952 13.572 35.984 13.379 36.047 13.214C36.104 13.069 36.192 12.939 36.306 12.832C36.452 12.689 36.633 12.585 36.832 12.533C36.95 12.502 37.076 12.487 37.21 12.487C37.393 12.487 37.583 12.518 37.78 12.583Z" fill="#666666"/>
</g>
<defs>
<clipPath id="clip0_1_90">
<rect width="78" height="20" fill="white" transform="translate(-34.91 0.449951)"/>
</clipPath>
</defs>
</svg>
