<svg width="54" height="21" viewBox="0 0 54 21" fill="none" xmlns="http://www.w3.org/2000/svg">
<g id="svg12160044748" clip-path="url(#clip0_1_103)">
<path id="Vector" d="M1.06197 16.483C1.26097 16.529 1.48097 16.552 1.72197 16.552H2.47597L2.65897 14.838C2.49197 14.841 2.32497 14.832 2.15897 14.811C2.11597 14.805 2.07397 14.798 2.03197 14.788C1.88597 14.749 1.78597 14.637 1.72997 14.452C1.70597 14.351 1.68897 14.248 1.68097 14.145C1.67097 14.045 1.66496 13.945 1.66096 13.845C1.65697 13.728 1.65496 13.612 1.65496 13.495V3.78296H-0.421036V14.351C-0.421036 14.581 -0.397034 14.799 -0.348034 15.007C-0.311034 15.164 -0.260033 15.315 -0.196033 15.46C-0.0450335 15.791 0.185966 16.057 0.499966 16.258C0.663966 16.358 0.850966 16.433 1.06197 16.483ZM7.36197 16.552C6.49097 16.552 5.79697 16.378 5.27697 16.032C4.76097 15.688 4.36797 15.187 4.15597 14.603C3.92597 13.992 3.81197 13.292 3.81197 12.503V7.98296H5.88797V12.503C5.88797 13.282 6.01696 13.862 6.27296 14.242C6.53596 14.617 6.96097 14.805 7.54697 14.805C8.01497 14.805 8.40296 14.692 8.70996 14.469C8.85896 14.362 8.99496 14.236 9.12096 14.088V7.98296H11.196V16.384H9.25397L9.21997 15.88C9.05897 16 8.87097 16.115 8.65197 16.224C8.25397 16.435 7.81196 16.547 7.36197 16.552Z" fill="#666666"/>
<path id="Vector_2" d="M14.642 15.948C15.317 16.351 16.161 16.553 17.17 16.553C18.087 16.564 18.994 16.37 19.827 15.984C19.876 15.961 19.922 15.938 19.968 15.914L19.867 14.15C19.593 14.311 19.305 14.446 19.006 14.554C18.908 14.59 18.81 14.623 18.711 14.654C18.27 14.78 17.814 14.842 17.355 14.838C16.956 14.841 16.561 14.764 16.191 14.612C15.961 14.514 15.748 14.378 15.562 14.21L15.511 14.163L15.463 14.116C15.398 14.049 15.336 13.979 15.278 13.906C15.033 13.581 14.871 13.158 14.793 12.638H20.201C20.245 12.446 20.278 12.252 20.302 12.058C20.324 11.868 20.335 11.68 20.335 11.495C20.335 10.828 20.202 10.221 19.933 9.67196C19.668 9.12096 19.25 8.65996 18.728 8.34496C18.192 8.01396 17.522 7.84896 16.719 7.84896C15.842 7.84896 15.1 8.04796 14.491 8.44596C13.892 8.82696 13.411 9.36796 13.101 10.008C12.786 10.672 12.626 11.398 12.633 12.133C12.633 12.929 12.8 13.663 13.136 14.334C13.47 15.001 13.972 15.538 14.642 15.948ZM18.225 11.226H14.843C14.9 10.936 15.008 10.659 15.161 10.407C15.246 10.272 15.344 10.147 15.454 10.033C15.761 9.71996 16.183 9.56296 16.719 9.56296C17.092 9.56296 17.389 9.64996 17.606 9.82296C17.829 9.99696 17.988 10.213 18.083 10.47C18.178 10.723 18.225 10.974 18.225 11.227V11.226ZM26.107 16.553C25.47 16.553 24.92 16.448 24.458 16.242C24.2 16.126 23.952 15.988 23.718 15.829L23.679 16.384H21.736V3.78296H23.812V8.61196C24.039 8.43896 24.283 8.28996 24.541 8.16796C24.999 7.95596 25.52 7.84896 26.107 7.84896C26.927 7.84896 27.616 8.04796 28.174 8.44596C28.735 8.84596 29.173 9.39596 29.439 10.033C29.729 10.694 29.875 11.417 29.875 12.2C29.875 12.985 29.729 13.708 29.439 14.368C29.173 15.005 28.735 15.555 28.174 15.956C27.616 16.353 26.927 16.553 26.107 16.553ZM25.805 14.838C26.218 14.838 26.57 14.727 26.86 14.503C27.151 14.278 27.371 13.97 27.522 13.578C27.672 13.181 27.748 12.722 27.748 12.201C27.748 11.68 27.673 11.223 27.522 10.832C27.476 10.709 27.42 10.591 27.356 10.477C27.231 10.253 27.062 10.057 26.86 9.89896C26.707 9.78096 26.533 9.69196 26.348 9.63796C26.18 9.58696 25.999 9.56296 25.805 9.56296C25.319 9.56296 24.923 9.67496 24.616 9.89896C24.309 10.123 24.081 10.433 23.93 10.832C23.849 11.057 23.791 11.291 23.759 11.528C23.739 11.659 23.726 11.791 23.72 11.923C23.715 12.014 23.712 12.107 23.712 12.201C23.712 12.722 23.785 13.181 23.93 13.578C24.015 13.801 24.126 13.997 24.263 14.165C24.365 14.293 24.484 14.406 24.616 14.503C24.923 14.727 25.319 14.838 25.805 14.838Z" fill="#666666"/>
<path id="Vector_3" d="M33.669 15.83L31.809 20.45H33.886L39.126 7.98299H36.815L34.638 13.393L32.495 7.98299H30.185L33.669 15.83ZM42.863 16.552C42.338 16.552 41.912 16.446 41.582 16.233C41.266 16.03 41.014 15.742 40.854 15.402C40.699 15.073 40.619 14.715 40.619 14.352V9.69699H39.43L39.614 7.98299H40.619V6.13599L42.696 5.91699V7.98299H44.537V9.69799H42.696V13.494C42.697 13.656 42.701 13.819 42.71 13.981C42.715 14.065 42.723 14.142 42.732 14.209C42.743 14.29 42.755 14.359 42.771 14.418C42.821 14.603 42.936 14.721 43.114 14.772C43.293 14.816 43.577 14.838 43.969 14.838H44.537L44.353 16.552H42.863Z" fill="#666666"/>
<path id="Vector_4" d="M47.397 15.948C48.072 16.351 48.915 16.553 49.925 16.553C50.467 16.559 51.008 16.494 51.533 16.359C52.007 16.23 52.403 16.082 52.721 15.913L52.621 14.149C52.257 14.362 51.869 14.532 51.465 14.653C51.025 14.78 50.568 14.842 50.11 14.838C49.696 14.838 49.308 14.763 48.946 14.612C48.586 14.459 48.272 14.216 48.032 13.906C47.788 13.581 47.626 13.158 47.548 12.638H52.956C52.999 12.446 53.033 12.252 53.056 12.058C53.078 11.868 53.09 11.68 53.09 11.495C53.09 10.828 52.956 10.221 52.688 9.672C52.423 9.121 52.004 8.66 51.482 8.345C50.946 8.014 50.276 7.849 49.473 7.849C48.596 7.849 47.854 8.048 47.245 8.446C46.647 8.827 46.166 9.368 45.857 10.008C45.541 10.671 45.38 11.398 45.388 12.133C45.388 12.929 45.554 13.663 45.89 14.334C46.224 15.001 46.727 15.538 47.397 15.948ZM50.98 11.226H47.597C47.698 10.745 47.902 10.347 48.208 10.033C48.516 9.72 48.937 9.563 49.473 9.563C49.847 9.563 50.143 9.65 50.36 9.823C50.584 9.997 50.743 10.213 50.838 10.47C50.875 10.571 50.906 10.674 50.93 10.778C50.963 10.928 50.98 11.077 50.98 11.226Z" fill="#666666"/>
</g>
<defs>
<clipPath id="clip0_1_103">
<rect width="88" height="20" fill="white" transform="translate(-34.91 0.449951)"/>
</clipPath>
</defs>
</svg>
