<svg width="54" height="21" viewBox="0 0 54 21" fill="none" xmlns="http://www.w3.org/2000/svg">
<g id="svg8983779558" clip-path="url(#clip0_1_122)">
<path id="Vector" d="M3.59504 12.507C3.54604 12.386 3.50704 12.262 3.47804 12.135H8.87904V11.1C8.87904 9.70997 8.52204 8.65497 7.80804 7.93497C7.09404 7.20497 6.10804 6.83997 4.85104 6.83997C4.06604 6.83997 3.35704 7.01497 2.72404 7.36497C2.09004 7.70497 1.58704 8.21497 1.21504 8.89497C0.843042 9.56497 0.657043 10.37 0.657043 11.31C0.657043 12.21 0.838043 13 1.20004 13.68C1.55704 14.355 2.10904 14.909 2.78404 15.27C3.48804 15.64 4.33804 15.825 5.33404 15.825C6.04804 15.825 6.66104 15.765 7.17404 15.645C7.54704 15.564 7.91004 15.443 8.25704 15.282C8.41704 15.21 8.57404 15.131 8.72804 15.045L8.04904 13.035C7.65304 13.239 7.23904 13.404 6.81204 13.53C6.76304 13.543 6.71404 13.554 6.66504 13.565L6.58604 13.582L6.52504 13.592L6.43704 13.607C6.19204 13.647 5.94404 13.666 5.69604 13.665C5.02204 13.665 4.50904 13.53 4.15704 13.26C3.90704 13.062 3.71404 12.802 3.59504 12.507ZM3.96104 9.26997C4.19204 9.08997 4.48904 8.99997 4.85104 8.99997C5.06504 8.99997 5.25104 9.02797 5.40904 9.08497C5.49604 9.11697 5.57604 9.15697 5.64504 9.20697L5.67704 9.22997C5.69904 9.24697 5.72104 9.26597 5.74104 9.28497C5.95204 9.47497 6.07804 9.77997 6.11804 10.2H3.49304C3.58404 9.75997 3.74004 9.44997 3.96104 9.26997Z" fill="#666666"/>
<path id="Vector_2" d="M15.416 15.5699L14.028 13.2749L12.701 15.5699H9.63803L12.429 11.1449L9.78903 7.07989H12.851L14.074 9.13489L15.31 7.07989H18.343L15.613 11.2649L18.479 15.5699H15.416ZM20.424 14.6399C21.169 15.4199 22.245 15.8149 23.653 15.8249C24.769 15.8249 25.79 15.5499 26.715 14.9999L25.976 12.8399C25.818 12.9399 25.655 13.0329 25.488 13.1169C25.163 13.2819 24.816 13.3999 24.457 13.4669C24.266 13.4989 24.073 13.5159 23.879 13.5149C23.235 13.5149 22.768 13.3249 22.476 12.9449C22.184 12.5649 22.039 12.0149 22.039 11.2949C22.039 10.5949 22.189 10.0649 22.491 9.70489C22.793 9.34489 23.281 9.15989 23.954 9.14989C24.357 9.14989 24.719 9.18489 25.041 9.25489C25.119 9.27189 25.198 9.29089 25.278 9.31289L25.387 9.34589L25.425 9.35689L25.546 9.39889L25.594 9.41589C25.765 9.47789 25.933 9.54989 26.097 9.62989V7.25989C25.733 7.10789 25.354 6.99789 24.965 6.92989C24.531 6.86489 24.092 6.83489 23.653 6.83989C22.245 6.84989 21.169 7.24489 20.424 8.02489C19.68 8.79489 19.308 9.88989 19.308 11.3099C19.308 12.7399 19.68 13.8499 20.424 14.6399Z" fill="#666666"/>
<path id="Vector_3" d="M32.114 15.825C31.129 15.825 30.294 15.63 29.61 15.24C28.946 14.861 28.406 14.298 28.056 13.62C27.714 12.94 27.543 12.175 27.543 11.325C27.543 10.485 27.714 9.72497 28.056 9.04497C28.404 8.36897 28.944 7.81097 29.61 7.43997C30.294 7.03997 31.129 6.83997 32.114 6.83997C33.09 6.83997 33.919 7.03997 34.603 7.43997C35.267 7.80897 35.803 8.36797 36.142 9.04497C36.484 9.72497 36.655 10.485 36.655 11.325C36.655 12.175 36.484 12.94 36.142 13.62C35.801 14.299 35.266 14.863 34.603 15.24C33.919 15.63 33.09 15.825 32.114 15.825ZM32.114 13.605C32.708 13.605 33.155 13.41 33.457 13.02C33.564 12.887 33.652 12.732 33.722 12.557C33.857 12.223 33.924 11.812 33.924 11.325C33.924 10.595 33.769 10.035 33.457 9.64497C33.155 9.25497 32.708 9.05997 32.114 9.05997C31.511 9.05997 31.053 9.25497 30.741 9.64497C30.43 10.035 30.274 10.595 30.274 11.325C30.274 12.065 30.43 12.63 30.741 13.02C31.053 13.41 31.511 13.605 32.114 13.605Z" fill="#666666"/>
<path id="Vector_4" d="M43.532 9.2099V6.8999H43.185C42.762 6.8999 42.36 6.9799 41.978 7.1399C41.827 7.2009 41.676 7.2749 41.524 7.3629C41.29 7.4989 41.069 7.6559 40.861 7.8299V7.0799H38.236V15.5699H40.861V10.0349C41.636 9.4849 42.41 9.2099 43.185 9.2099H43.532Z" fill="#666666"/>
<path id="Vector_5" d="M47.336 12.135C47.37 12.287 47.419 12.435 47.483 12.577C47.539 12.7 47.608 12.816 47.688 12.925C47.782 13.05 47.89 13.163 48.015 13.26C48.366 13.53 48.879 13.665 49.553 13.665C49.825 13.664 50.096 13.641 50.364 13.596C50.467 13.578 50.57 13.556 50.67 13.53C51.097 13.404 51.511 13.238 51.907 13.035L52.585 15.045C52.373 15.162 52.163 15.265 51.954 15.353C51.834 15.403 51.714 15.448 51.591 15.49C51.408 15.552 51.221 15.604 51.032 15.645C50.519 15.765 49.905 15.825 49.191 15.825C48.196 15.825 47.346 15.64 46.642 15.27C45.966 14.909 45.415 14.355 45.058 13.68C44.696 13 44.515 12.21 44.515 11.31C44.515 10.37 44.701 9.56499 45.073 8.89499C45.445 8.21499 45.948 7.70499 46.581 7.36499C46.93 7.17299 47.302 7.03299 47.696 6.94599C48.029 6.87399 48.368 6.83899 48.708 6.83999C49.966 6.83999 50.951 7.20499 51.665 7.93499C52.379 8.65499 52.736 9.70999 52.736 11.1V12.135H47.336ZM48.708 8.99999C48.346 8.99999 48.05 9.08999 47.818 9.26999C47.597 9.44999 47.441 9.75999 47.351 10.2H49.976C49.962 10.035 49.928 9.87199 49.874 9.71599C49.82 9.55199 49.725 9.40299 49.598 9.28499C49.461 9.15899 49.29 9.07399 49.107 9.03899C48.976 9.01199 48.842 8.99899 48.708 8.99999Z" fill="#666666"/>
</g>
<defs>
<clipPath id="clip0_1_122">
<rect width="88" height="20" fill="white" transform="translate(-34.91 0.449951)"/>
</clipPath>
</defs>
</svg>
