<svg width="24" height="25" viewBox="0 0 24 25" fill="none" xmlns="http://www.w3.org/2000/svg">
<g id="SVG">
<g id="Group">
<path id="Vector" opacity="0.2" d="M21.75 9.82983V18.8298C21.75 19.0287 21.671 19.2195 21.5303 19.3602C21.3897 19.5008 21.1989 19.5798 21 19.5798H3C2.80109 19.5798 2.61032 19.5008 2.46967 19.3602C2.32902 19.2195 2.25 19.0287 2.25 18.8298V9.82983H21.75Z" fill="#FD0000"/>
<path id="Vector_2" d="M21 5.32983H3C2.60218 5.32983 2.22064 5.48787 1.93934 5.76917C1.65804 6.05048 1.5 6.43201 1.5 6.82983V18.8298C1.5 19.2277 1.65804 19.6092 1.93934 19.8905C2.22064 20.1718 2.60218 20.3298 3 20.3298H21C21.3978 20.3298 21.7794 20.1718 22.0607 19.8905C22.342 19.6092 22.5 19.2277 22.5 18.8298V6.82983C22.5 6.43201 22.342 6.05048 22.0607 5.76917C21.7794 5.48787 21.3978 5.32983 21 5.32983ZM21 6.82983V9.07983H3V6.82983H21ZM21 18.8298H3V10.5798H21V18.8298ZM19.5 16.5798C19.5 16.7787 19.421 16.9695 19.2803 17.1102C19.1397 17.2508 18.9489 17.3298 18.75 17.3298H15.75C15.5511 17.3298 15.3603 17.2508 15.2197 17.1102C15.079 16.9695 15 16.7787 15 16.5798C15 16.3809 15.079 16.1902 15.2197 16.0495C15.3603 15.9089 15.5511 15.8298 15.75 15.8298H18.75C18.9489 15.8298 19.1397 15.9089 19.2803 16.0495C19.421 16.1902 19.5 16.3809 19.5 16.5798ZM13.5 16.5798C13.5 16.7787 13.421 16.9695 13.2803 17.1102C13.1397 17.2508 12.9489 17.3298 12.75 17.3298H11.25C11.0511 17.3298 10.8603 17.2508 10.7197 17.1102C10.579 16.9695 10.5 16.7787 10.5 16.5798C10.5 16.3809 10.579 16.1902 10.7197 16.0495C10.8603 15.9089 11.0511 15.8298 11.25 15.8298H12.75C12.9489 15.8298 13.1397 15.9089 13.2803 16.0495C13.421 16.1902 13.5 16.3809 13.5 16.5798Z" fill="#FD0000"/>
</g>
</g>
</svg>
