<svg width="24" height="25" viewBox="0 0 24 25" fill="none" xmlns="http://www.w3.org/2000/svg">
<g id="SVG">
<g id="Group">
<path id="Vector" opacity="0.2" d="M1.5 15.0799H4.5V20.3299H1.5C1.30109 20.3299 1.11032 20.2509 0.96967 20.1103C0.829018 19.9696 0.75 19.7788 0.75 19.5799V15.8299C0.75 15.631 0.829018 15.4403 0.96967 15.2996C1.11032 15.1589 1.30109 15.0799 1.5 15.0799ZM19.125 6.07993C18.7358 6.08017 18.3515 6.16695 18 6.33399C17.9745 5.77099 17.7684 5.23116 17.4123 4.79432C17.0563 4.35749 16.569 4.04686 16.0227 3.90837C15.4764 3.76988 14.9001 3.81089 14.3789 4.02533C13.8577 4.23977 13.4194 4.61625 13.1287 5.0991C12.8381 5.58194 12.7105 6.14551 12.765 6.70646C12.8194 7.2674 13.0529 7.79592 13.431 8.21387C13.8091 8.63181 14.3116 8.91698 14.8643 9.0272C15.417 9.13741 15.9905 9.06682 16.5 8.82587C16.5237 9.33923 16.6975 9.83435 17 10.2498C17.3024 10.6653 17.7202 10.9829 18.2014 11.1631C18.6827 11.3434 19.2063 11.3784 19.7072 11.2639C20.2082 11.1494 20.6646 10.8903 21.0197 10.5188C21.3748 10.1474 21.6131 9.67981 21.7049 9.17418C21.7968 8.66855 21.7382 8.14708 21.5365 7.67443C21.3347 7.20178 20.9987 6.79874 20.57 6.5153C20.1413 6.23185 19.6389 6.08047 19.125 6.07993Z" fill="#0083FD"/>
<path id="Vector_2" d="M21.5934 14.0542C21.3144 13.8395 20.9895 13.692 20.6442 13.6232C20.2988 13.5544 19.9422 13.5662 19.6022 13.6576L15.6797 14.5595C15.7709 14.174 15.7738 13.7729 15.6879 13.3861C15.6021 12.9993 15.4298 12.637 15.1841 12.3263C14.9383 12.0156 14.6254 11.7646 14.2688 11.592C13.9122 11.4194 13.5212 11.3298 13.125 11.3298H8.43188C8.03775 11.3288 7.64733 11.406 7.28319 11.5567C6.91904 11.7075 6.58838 11.929 6.31031 12.2083L4.18969 14.3298H1.5C1.10218 14.3298 0.720644 14.4879 0.43934 14.7692C0.158035 15.0505 0 15.432 0 15.8298L0 19.5798C0 19.9777 0.158035 20.3592 0.43934 20.6405C0.720644 20.9218 1.10218 21.0798 1.5 21.0798H11.25C11.3113 21.0799 11.3724 21.0723 11.4319 21.0573L17.4319 19.5573C17.4701 19.5482 17.5075 19.5357 17.5434 19.5198L21.1875 17.9692L21.2288 17.9505C21.579 17.7755 21.8789 17.5142 22.1002 17.1912C22.3215 16.8683 22.457 16.4943 22.4939 16.1045C22.5307 15.7148 22.4678 15.322 22.3109 14.9633C22.154 14.6046 21.9084 14.2918 21.5972 14.0542H21.5934ZM1.5 15.8298H3.75V19.5798H1.5V15.8298ZM20.5716 16.5995L17.0091 18.1164L11.1562 19.5798H5.25V15.3901L7.37156 13.2695C7.51035 13.1296 7.67555 13.0187 7.85758 12.9432C8.03961 12.8678 8.23482 12.8292 8.43188 12.8298H13.125C13.4234 12.8298 13.7095 12.9484 13.9205 13.1593C14.1315 13.3703 14.25 13.6565 14.25 13.9548C14.25 14.2532 14.1315 14.5394 13.9205 14.7503C13.7095 14.9613 13.4234 15.0798 13.125 15.0798H10.5C10.3011 15.0798 10.1103 15.1589 9.96967 15.2995C9.82902 15.4402 9.75 15.6309 9.75 15.8298C9.75 16.0287 9.82902 16.2195 9.96967 16.3602C10.1103 16.5008 10.3011 16.5798 10.5 16.5798H13.5C13.5565 16.5797 13.6127 16.5734 13.6678 16.5611L19.9491 15.1164L19.9781 15.1089C20.1699 15.0557 20.3745 15.0752 20.5527 15.1638C20.7309 15.2524 20.87 15.4038 20.9433 15.5888C21.0167 15.7738 21.0189 15.9794 20.9498 16.166C20.8806 16.3525 20.7449 16.507 20.5687 16.5995H20.5716ZM15.375 9.82984C15.5603 9.83004 15.7453 9.81499 15.9281 9.78483C16.1338 10.3957 16.51 10.9348 17.0124 11.3386C17.5147 11.7424 18.1222 11.9938 18.763 12.0633C19.4037 12.1328 20.051 12.0173 20.6282 11.7306C21.2054 11.4439 21.6884 10.9979 22.0202 10.4453C22.352 9.89275 22.5186 9.25674 22.5004 8.61249C22.4821 7.96824 22.2798 7.34268 21.9173 6.80977C21.5548 6.27686 21.0473 5.85889 20.4548 5.60527C19.8623 5.35165 19.2096 5.27299 18.5737 5.37859C18.3757 4.79007 18.0192 4.26758 17.5434 3.86863C17.0676 3.46967 16.4909 3.20972 15.8769 3.11737C15.2629 3.02502 14.6353 3.10386 14.0631 3.34521C13.491 3.58656 12.9966 3.98106 12.6342 4.4853C12.2719 4.98954 12.0556 5.58398 12.0093 6.20319C11.963 6.8224 12.0885 7.44238 12.3718 7.9949C12.6552 8.54742 13.0854 9.01106 13.6153 9.33481C14.1452 9.65855 14.7541 9.82984 15.375 9.82984ZM21 8.70484C21 9.07568 20.89 9.43819 20.684 9.74653C20.478 10.0549 20.1851 10.2952 19.8425 10.4371C19.4999 10.579 19.1229 10.6162 18.7592 10.5438C18.3955 10.4715 18.0614 10.2929 17.7992 10.0307C17.537 9.76844 17.3584 9.43434 17.286 9.07063C17.2137 8.70692 17.2508 8.32992 17.3927 7.9873C17.5346 7.64469 17.775 7.35186 18.0833 7.14583C18.3916 6.9398 18.7542 6.82984 19.125 6.82984C19.6223 6.82984 20.0992 7.02738 20.4508 7.37901C20.8025 7.73064 21 8.20755 21 8.70484ZM15.375 4.57984C15.784 4.58004 16.1818 4.714 16.5076 4.96128C16.8334 5.20857 17.0695 5.55562 17.1797 5.94952C16.7956 6.2198 16.4721 6.56728 16.2299 6.96973C15.9878 7.37217 15.8323 7.82073 15.7734 8.28671C15.6425 8.31499 15.509 8.32944 15.375 8.32984C14.8777 8.32984 14.4008 8.13229 14.0492 7.78066C13.6975 7.42903 13.5 6.95212 13.5 6.45484C13.5 5.95755 13.6975 5.48064 14.0492 5.12901C14.4008 4.77738 14.8777 4.57984 15.375 4.57984Z" fill="#0083FD"/>
</g>
</g>
</svg>
